<?xml version="1.0" encoding="UTF-8" standalone="no"?>
<svg
   version="1.1"
   width="165"
   height="200"
   style="clip-rule:evenodd;fill-rule:evenodd;image-rendering:optimizeQuality;shape-rendering:geometricPrecision;text-rendering:geometricPrecision"
   id="svg773"
   sodipodi:docname="penguin_admin.svg"
   inkscape:version="1.2.2 (b0a8486, 2022-12-01)"
   xmlns:inkscape="http://www.inkscape.org/namespaces/inkscape"
   xmlns:sodipodi="http://sodipodi.sourceforge.net/DTD/sodipodi-0.dtd"
   xmlns="http://www.w3.org/2000/svg"
   xmlns:svg="http://www.w3.org/2000/svg">
  <defs
     id="defs777" />
  <sodipodi:namedview
     id="namedview775"
     pagecolor="#ffffff"
     bordercolor="#666666"
     borderopacity="1.0"
     inkscape:showpageshadow="2"
     inkscape:pageopacity="0.0"
     inkscape:pagecheckerboard="0"
     inkscape:deskcolor="#d1d1d1"
     showgrid="false"
     inkscape:zoom="0.43333333"
     inkscape:cx="246.92308"
     inkscape:cy="300"
     inkscape:window-width="717"
     inkscape:window-height="480"
     inkscape:window-x="0"
     inkscape:window-y="25"
     inkscape:window-maximized="0"
     inkscape:current-layer="svg773" />
  <g
     id="g419">
    <path
       style="opacity:1"
       fill="#fefefe"
       d="m -0.5,-0.5 c 165,0 330,0 495,0 0,97.6667 0,195.333 0,293 -1.807,-7.149 -3.307,-14.482 -4.5,-22 -3.516,-10.538 -10.349,-18.038 -20.5,-22.5 -11.449,-3.518 -22.782,-7.351 -34,-11.5 -4.711,-11.887 -10.544,-23.22 -17.5,-34 -15.246,-20.816 -29.246,-42.483 -42,-65 -23.22,-30.345 -53.72,-41.8446 -91.5,-34.5 -10.001,3.664 -18.667,9.331 -26,17 -16.061,-0.828 -31.727,1.172 -47,6 -3.226,1.106 -5.893,2.939 -8,5.5 0.274,4.788 1.774,9.121 4.5,13 7.912,9.914 17.078,18.414 27.5,25.5 5.333,5.333 10.667,10.667 16,16 11.728,6.281 22.894,13.448 33.5,21.5 4.764,10.069 6.93,20.736 6.5,32 -12.872,0.143 -25.206,2.643 -37,7.5 -10.067,2.032 -20.067,4.032 -30,6 -4.448,-6.782 -9.281,-13.282 -14.5,-19.5 -12.137,-13.138 -24.637,-25.971 -37.5,-38.5 -14.012,-0.167 -28.012,-0.667 -42,-1.5 2.976,-4.144 6.143,-8.144 9.5,-12 4.573,-8.245 9.573,-16.245 15,-24 3.585,-39.208 4.918,-78.541 4,-118 -0.414,-0.4574 -0.914,-0.7907 -1.5,-1 -24.385,24.8046 -46.885,51.1379 -67.5,79 -3.6667,3.667 -7.3333,7.333 -11,11 0.5607,21.671 0.3941,43.338 -0.5,65 -22.1472,-1.388 -44.3139,-2.388 -66.5,-3 -2.03422,-0.146 -3.70089,0.52 -5,2 -1.27889,30.97 -1.94555,61.97 -2,93 -2.45556,25.622 -3.95556,51.288 -4.5,77 -0.333333,0 -0.666667,0 -1,0 0,-121 0,-242 0,-363 z"
       id="path417" />
  </g>
  <g
     id="g423">
    <path
       style="opacity:1"
       fill="#fdfdfd"
       d="m 22.5,237.5 c 13.4738,31.282 28.3071,61.949 44.5,92 4.726,11.119 9.726,22.119 15,33 6.9105,8.822 13.5772,17.822 20,27 -0.31,56.694 -1.81,113.36 -4.5,170 0.1667,7.333 0.3333,14.667 0.5,22 0.2414,2.789 0.908,5.456 2,8 1.822,1.545 3.989,2.212 6.5,2 4.017,-0.36 8.017,-0.86 12,-1.5 0.5,-0.5 1,-1 1.5,-1.5 3.241,-66.166 5.741,-132.333 7.5,-198.5 28.762,1.764 57.596,1.93 86.5,0.5 17.488,1.014 34.988,1.847 52.5,2.5 0.602,4.561 1.602,9.061 3,13.5 -3.325,8.323 -6.492,16.656 -9.5,25 -1.801,2.663 -4.301,4.497 -7.5,5.5 -6.522,5.523 -12.688,11.357 -18.5,17.5 -5.053,8.641 -7.219,17.974 -6.5,28 1.373,0.157 2.707,-0.01 4,-0.5 2.804,-6.299 7.137,-11.132 13,-14.5 0.923,-0.803 1.923,-0.97 3,-0.5 -2.957,8.305 -2.624,16.472 1,24.5 1.649,-1.148 3.149,-2.481 4.5,-4 2.735,-4.561 5.235,-9.227 7.5,-14 0.502,-1.021 1.168,-1.188 2,-0.5 3.128,5.389 4.628,11.222 4.5,17.5 1.938,1.36 3.604,1.027 5,-1 -0.04,5.886 0.96,11.553 3,17 0.689,0.857 1.522,1.523 2.5,2 2.256,-4.925 4.422,-9.925 6.5,-15 1.076,-2.579 2.909,-4.246 5.5,-5 0.667,3.333 1.333,6.667 2,10 -0.237,3.91 0.596,7.577 2.5,11 1.444,1.655 3.278,2.322 5.5,2 0.089,-6.532 1.255,-12.866 3.5,-19 0.414,-0.457 0.914,-0.791 1.5,-1 2.539,1.431 4.872,3.097 7,5 0.333,27 -1.167,54 -4.5,81 -0.667,6 -0.667,12 0,18 0.833,0.833 1.667,1.667 2.5,2.5 4.989,0.499 9.989,0.666 15,0.5 2.737,-27.988 5.237,-55.988 7.5,-84 -0.341,-24.007 -0.174,-48.007 0.5,-72 6.312,-0.998 12.646,-1.498 19,-1.5 2.515,3.234 4.849,6.567 7,10 3.39,3.196 7.39,5.029 12,5.5 3.651,0.665 7.485,0.999 11.5,1 5.432,0.219 10.599,-0.448 15.5,-2 2,0 4,0 6,0 0.384,11.034 0.384,22.034 0,33 -8.764,1.324 -17.431,3.157 -26,5.5 -2,1.333 -4,2.667 -6,4 -2.572,5.794 -5.739,11.294 -9.5,16.5 -1.109,6.351 1.058,11.184 6.5,14.5 5.969,1.71 9.803,-0.457 11.5,-6.5 0.405,-3.713 0.405,-7.379 0,-11 7.475,-5.628 15.309,-6.295 23.5,-2 1.141,1.921 1.308,3.921 0.5,6 -2.219,3.771 -3.885,7.771 -5,12 -0.355,6.845 -0.855,13.678 -1.5,20.5 0.983,8.83 5.649,11.496 14,8 4.626,-4.795 4.96,-9.795 1,-15 4.445,-8.67 7.279,-17.836 8.5,-27.5 1.793,-2.795 3.96,-5.295 6.5,-7.5 4.185,-0.758 8.185,-2.091 12,-4 9.404,-1.729 13.571,2.104 12.5,11.5 4.37,7.2 10.203,8.7 17.5,4.5 4.521,-5.427 3.687,-9.927 -2.5,-13.5 -1.586,-7.593 -6.086,-12.76 -13.5,-15.5 -9.868,-2.409 -19.534,-1.909 -29,1.5 -1.526,-3.154 -2.193,-6.487 -2,-10 1.465,-5.09 2.132,-10.423 2,-16 -0.002,-3.518 -0.335,-6.851 -1,-10 0,-1 0,-2 0,-3 18.141,-1.324 35.474,-5.824 52,-13.5 6.546,-4.595 9.713,-10.761 9.5,-18.5 -4.483,-6.079 -10.149,-10.745 -17,-14 1.429,-15.266 1.762,-30.6 1,-46 -2.7,-7.849 -3.533,-15.849 -2.5,-24 7.711,5.435 15.211,5.101 22.5,-1 1.751,-1.99 2.751,-4.323 3,-7 0.837,-8.151 1.67,-16.151 2.5,-24 0,98.667 0,197.333 0,296 -165,0 -330,0 -495,0 0,-79 0,-158 0,-237 0.333333,0 0.666667,0 1,0 0,3.667 0,7.333 0,11 5.66667,0 11.3333,0 17,0 0.9351,-43.339 1.9351,-86.672 3,-130 0.6667,-2 1.3333,-4 2,-6 z"
       id="path421" />
  </g>
  <g
     id="g427">
    <path
       style="opacity:1"
       fill="#0d0d0e"
       d="m 494.5,292.5 c 0,3.667 0,7.333 0,11 -0.83,7.849 -1.663,15.849 -2.5,24 -0.249,2.677 -1.249,5.01 -3,7 -7.289,6.101 -14.789,6.435 -22.5,1 -1.033,8.151 -0.2,16.151 2.5,24 0.762,15.4 0.429,30.734 -1,46 6.851,3.255 12.517,7.921 17,14 0.213,7.739 -2.954,13.905 -9.5,18.5 -16.526,7.676 -33.859,12.176 -52,13.5 0,1 0,2 0,3 0.036,8.685 -0.297,17.351 -1,26 -0.193,3.513 0.474,6.846 2,10 9.466,-3.409 19.132,-3.909 29,-1.5 7.414,2.74 11.914,7.907 13.5,15.5 6.187,3.573 7.021,8.073 2.5,13.5 -7.297,4.2 -13.13,2.7 -17.5,-4.5 1.071,-9.396 -3.096,-13.229 -12.5,-11.5 -3.815,1.909 -7.815,3.242 -12,4 -2.54,2.205 -4.707,4.705 -6.5,7.5 -1.221,9.664 -4.055,18.83 -8.5,27.5 3.96,5.205 3.626,10.205 -1,15 -8.351,3.496 -13.017,0.83 -14,-8 0.645,-6.822 1.145,-13.655 1.5,-20.5 1.115,-4.229 2.781,-8.229 5,-12 0.808,-2.079 0.641,-4.079 -0.5,-6 -8.191,-4.295 -16.025,-3.628 -23.5,2 0.405,3.621 0.405,7.287 0,11 -1.697,6.043 -5.531,8.21 -11.5,6.5 -5.442,-3.316 -7.609,-8.149 -6.5,-14.5 3.761,-5.206 6.928,-10.706 9.5,-16.5 2,-1.333 4,-2.667 6,-4 8.569,-2.343 17.236,-4.176 26,-5.5 0.384,-10.966 0.384,-21.966 0,-33 -2,0 -4,0 -6,0 -8.972,0.847 -17.972,1.18 -27,1 -4.61,-0.471 -8.61,-2.304 -12,-5.5 -2.151,-3.433 -4.485,-6.766 -7,-10 -6.354,0.002 -12.688,0.502 -19,1.5 -0.674,23.993 -0.841,47.993 -0.5,72 -2.263,28.012 -4.763,56.012 -7.5,84 -5.011,0.166 -10.011,-10e-4 -15,-0.5 -0.833,-0.833 -1.667,-1.667 -2.5,-2.5 -0.667,-6 -0.667,-12 0,-18 3.333,-27 4.833,-54 4.5,-81 1.351,-1.892 2.018,-4.058 2,-6.5 -0.014,-1.385 -0.348,-2.551 -1,-3.5 -2.807,-5.614 -5.64,-11.28 -8.5,-17 -1.171,-10.485 1.329,-19.985 7.5,-28.5 -1.128,-2.296 -2.795,-4.129 -5,-5.5 -1.679,2.777 -3.345,5.444 -5,8 0,-1.333 -0.667,-2 -2,-2 1.535,-3.44 2.202,-7.107 2,-11 -0.39,-6.675 -0.89,-13.342 -1.5,-20 -0.561,-0.522 -1.228,-0.855 -2,-1 -5.031,1.015 -9.864,2.348 -14.5,4 0.239,-1.967 -0.094,-3.801 -1,-5.5 -2.347,-0.436 -4.681,-0.936 -7,-1.5 -1.213,0.247 -1.88,0.914 -2,2 -3.792,9.209 -7.292,18.542 -10.5,28 -4.322,2.899 -8.489,5.899 -12.5,9 -5.719,3.385 -10.052,8.052 -13,14 -3.774,3.885 -5.607,8.552 -5.5,14 1.059,-2.159 2.559,-3.826 4.5,-5 0.891,-0.61 1.891,-0.943 3,-1 1.834,-0.994 3.501,-0.994 5,0 -5.863,3.368 -10.196,8.201 -13,14.5 -1.293,0.49 -2.627,0.657 -4,0.5 -0.719,-10.026 1.447,-19.359 6.5,-28 5.812,-6.143 11.978,-11.977 18.5,-17.5 3.199,-1.003 5.699,-2.837 7.5,-5.5 3.008,-8.344 6.175,-16.677 9.5,-25 -1.398,-4.439 -2.398,-8.939 -3,-13.5 -17.512,-0.653 -35.012,-1.486 -52.5,-2.5 -28.904,1.43 -57.738,1.264 -86.5,-0.5 -1.759,66.167 -4.259,132.334 -7.5,198.5 -0.5,0.5 -1,1 -1.5,1.5 -3.983,0.64 -7.983,1.14 -12,1.5 -2.511,0.212 -4.678,-0.455 -6.5,-2 -1.092,-2.544 -1.7586,-5.211 -2,-8 -0.1667,-7.333 -0.3333,-14.667 -0.5,-22 2.69,-56.64 4.19,-113.306 4.5,-170 -6.4228,-9.178 -13.0895,-18.178 -20,-27 -5.274,-10.881 -10.274,-21.881 -15,-33 -16.1929,-30.051 -31.0262,-60.718 -44.5,-92 -0.06,-0.543 -0.3933,-0.876 -1,-1 -0.9742,2.243 -1.3076,4.576 -1,7 -1.0649,43.328 -2.0649,86.661 -3,130 -5.6667,0 -11.33333,0 -17,0 0,-3.667 0,-7.333 0,-11 0.54444,-25.712 2.04444,-51.378 4.5,-77 0.05445,-31.03 0.72111,-62.03 2,-93 1.29911,-1.48 2.96578,-2.146 5,-2 22.1861,0.612 44.3528,1.612 66.5,3 0.8941,-21.662 1.0607,-43.329 0.5,-65 3.6667,-3.667 7.3333,-7.333 11,-11 20.615,-27.8621 43.115,-54.1954 67.5,-79 0.586,0.2093 1.086,0.5426 1.5,1 0.918,39.459 -0.415,78.792 -4,118 -5.427,7.755 -10.427,15.755 -15,24 -3.357,3.856 -6.524,7.856 -9.5,12 13.988,0.833 27.988,1.333 42,1.5 12.863,12.529 25.363,25.362 37.5,38.5 5.219,6.218 10.052,12.718 14.5,19.5 9.933,-1.968 19.933,-3.968 30,-6 11.794,-4.857 24.128,-7.357 37,-7.5 0.43,-11.264 -1.736,-21.931 -6.5,-32 -10.606,-8.052 -21.772,-15.219 -33.5,-21.5 -5.333,-5.333 -10.667,-10.667 -16,-16 -10.422,-7.086 -19.588,-15.586 -27.5,-25.5 -2.726,-3.879 -4.226,-8.212 -4.5,-13 2.107,-2.561 4.774,-4.394 8,-5.5 15.273,-4.828 30.939,-6.828 47,-6 7.333,-7.669 15.999,-13.336 26,-17 37.78,-7.3446 68.28,4.155 91.5,34.5 12.754,22.517 26.754,44.184 42,65 6.956,10.78 12.789,22.113 17.5,34 11.218,4.149 22.551,7.982 34,11.5 10.151,4.462 16.984,11.962 20.5,22.5 1.193,7.518 2.693,14.851 4.5,22 z"
       id="path425" />
  </g>
  <g
     id="g431">
    <path
       style="opacity:1"
       fill="#f8f8f8"
       d="m 291.5,243.5 c 1.911,0.074 3.078,1.074 3.5,3 0.667,6.667 0.667,13.333 0,20 -0.792,2.087 -1.959,3.921 -3.5,5.5 -21.68,0.569 -43.346,1.403 -65,2.5 -7.033,-0.57 -14.033,-1.403 -21,-2.5 -2.164,-0.914 -4.164,-2.081 -6,-3.5 19.238,-5.801 38.572,-11.301 58,-16.5 10.209,-2.642 20.543,-4.642 31,-6 1.071,-0.852 2.071,-1.685 3,-2.5 z"
       id="path429" />
  </g>
  <g
     id="g435">
    <path
       style="opacity:1"
       fill="#b0babd"
       d="m 81.5,249.5 c 1.6942,-8.439 2.3609,-17.105 2,-26 0.5625,-29.997 1.0625,-59.997 1.5,-90 21.387,-25.118 42.053,-50.7847 62,-77 2.016,-2.184 4.183,-4.184 6.5,-6 0.642,33.6871 -0.191,67.354 -2.5,101 -0.899,4.038 -2.566,7.705 -5,11 -15.508,23.017 -31.508,45.684 -48,68 -5.5,9.667 -11,19.333 -16.5,29 -0.3333,-0.833 -0.6667,-1.667 -1,-2.5 0.6595,-2.462 0.9928,-4.962 1,-7.5 z"
       id="path433" />
  </g>
  <g
     id="g439">
    <path
       style="opacity:1"
       fill="#f8f8f8"
       d="m 260.5,171.5 c 4.346,-0.166 8.679,0.001 13,0.5 5.833,7.167 11.667,14.333 17.5,21.5 7.333,13.333 14.667,26.667 22,40 4.667,5.333 9.333,10.667 14,16 0.667,1.667 0.667,3.333 0,5 -3.533,7.903 -7.699,15.403 -12.5,22.5 -5.463,0.754 -10.796,0.254 -16,-1.5 3.125,-20.202 1.958,-40.202 -3.5,-60 -1.632,-6.43 -5.132,-11.597 -10.5,-15.5 -8.835,-5.585 -17.835,-10.919 -27,-16 -4.3,-3.298 -8.3,-6.965 -12,-11 5.184,-0.174 10.184,-0.674 15,-1.5 z"
       id="path437" />
  </g>
  <g
     id="g443">
    <path
       style="opacity:1"
       fill="#ab6130"
       d="m 239.5,163.5 c 3.147,0.237 6.147,1.07 9,2.5 5.657,0.499 11.324,0.666 17,0.5 -5.819,1.153 -11.819,1.319 -18,0.5 -2.976,-0.705 -5.642,-1.871 -8,-3.5 z"
       id="path441" />
  </g>
  <g
     id="g447">
    <path
       style="opacity:1"
       fill="#f78031"
       d="m 246.5,159.5 c 5.305,0.694 10.638,1.028 16,1 2.772,0.095 4.772,1.429 6,4 -0.857,0.925 -1.857,1.592 -3,2 -5.676,0.166 -11.343,-0.001 -17,-0.5 -2.853,-1.43 -5.853,-2.263 -9,-2.5 -1.436,-0.929 -2.769,-2.095 -4,-3.5 1.093,-1.365 2.426,-1.699 4,-1 -2.095,0.556 -2.262,1.056 -0.5,1.5 2.434,-0.822 4.934,-1.156 7.5,-1 z"
       id="path445" />
  </g>
  <g
     id="g451">
    <path
       style="opacity:1"
       fill="#de7b3d"
       d="m 256.5,127.5 c 1.193,0.47 1.86,1.47 2,3 0.709,7.171 2.209,14.171 4.5,21 0.722,2.761 0.555,5.427 -0.5,8 -4.968,-0.664 -9.968,-1.164 -15,-1.5 -2.976,-0.705 -5.642,-1.871 -8,-3.5 7.214,2.075 14.547,2.409 22,1 -1.054,-6.102 -2.554,-12.102 -4.5,-18 -0.333,2.333 -0.667,4.667 -1,7 -0.095,-5.657 0.072,-11.324 0.5,-17 z"
       id="path449" />
  </g>
  <g
     id="g455">
    <path
       style="opacity:1"
       fill="#e97e3a"
       d="m 246.5,159.5 c -2.566,-0.156 -5.066,0.178 -7.5,1 -1.762,-0.444 -1.595,-0.944 0.5,-1.5 -1.574,-0.699 -2.907,-0.365 -4,1 1.231,1.405 2.564,2.571 4,3.5 -2.155,0.128 -4.155,-0.372 -6,-1.5 -7.798,-5.631 -14.798,-12.131 -21,-19.5 -1.386,-2.26 -0.719,-3.094 2,-2.5 9.12,9.338 19.787,15.838 32,19.5 z"
       id="path453" />
  </g>
  <g
     id="g459">
    <path
       style="opacity:1"
       fill="#3e1107"
       d="m 212.5,137.5 c 5.351,3.692 10.685,7.359 16,11 2.9,3.286 6.567,5.286 11,6 2.358,1.629 5.024,2.795 8,3.5 5.032,0.336 10.032,0.836 15,1.5 0,0.333 0,0.667 0,1 -5.362,0.028 -10.695,-0.306 -16,-1 -12.213,-3.662 -22.88,-10.162 -32,-19.5 -2.719,-0.594 -3.386,0.24 -2,2.5 -1.086,-0.12 -1.753,-0.787 -2,-2 0.442,-1.239 1.109,-2.239 2,-3 z"
       id="path457" />
  </g>
  <g
     id="g463">
    <path
       style="opacity:1"
       fill="#d3d3d3"
       d="m 273.5,137.5 c 1.086,0.12 1.753,0.787 2,2 -0.804,2.457 -1.804,2.457 -3,0 0.363,-0.683 0.696,-1.35 1,-2 z"
       id="path461" />
  </g>
  <g
     id="g467">
    <path
       style="opacity:1"
       fill="#ee8037"
       d="m 218.5,127.5 c 1.333,0 2.667,0 4,0 0.514,2.012 0.68,4.012 0.5,6 -1.343,-0.714 -2.676,-0.38 -4,1 -0.154,-3.025 -1.654,-4.691 -4.5,-5 0.359,2.266 -0.308,4.099 -2,5.5 0.667,0.667 1.333,1.333 2,2 3.007,0.301 6.007,0.135 9,-0.5 -0.848,1.981 -1.348,3.981 -1.5,6 0.667,0.667 1.333,1.333 2,2 3.309,-1.176 4.809,0.157 4.5,4 -5.315,-3.641 -10.649,-7.308 -16,-11 -4.721,-2.326 -5.054,-5.16 -1,-8.5 2.24,-0.977 4.573,-1.477 7,-1.5 z"
       id="path465" />
  </g>
  <g
     id="g471">
    <path
       style="opacity:1"
       fill="#f0f0f0"
       d="m 279.5,124.5 c 1.517,0.011 2.684,0.677 3.5,2 0.212,10.708 -2.455,20.708 -8,30 -1.46,2.71 -3.46,3.376 -6,2 -0.532,-2.764 -1.366,-5.43 -2.5,-8 5.743,-0.578 9.576,-3.578 11.5,-9 0.773,-10.194 -3.394,-12.694 -12.5,-7.5 -1.118,1.074 -2.118,2.24 -3,3.5 -0.333,-0.333 -0.667,-0.667 -1,-1 4.732,-6.024 10.732,-10.024 18,-12 z"
       id="path469" />
  </g>
  <g
     id="g475">
    <path
       style="opacity:1"
       fill="#fc7e2b"
       d="m 251.5,124.5 c 2.174,0.25 3.841,1.25 5,3 -0.428,5.676 -0.595,11.343 -0.5,17 0.333,-2.333 0.667,-4.667 1,-7 1.946,5.898 3.446,11.898 4.5,18 -7.453,1.409 -14.786,1.075 -22,-1 -4.433,-0.714 -8.1,-2.714 -11,-6 0.309,-3.843 -1.191,-5.176 -4.5,-4 -0.667,-0.667 -1.333,-1.333 -2,-2 0.152,-2.019 0.652,-4.019 1.5,-6 -2.993,0.635 -5.993,0.801 -9,0.5 -0.667,-0.667 -1.333,-1.333 -2,-2 1.692,-1.401 2.359,-3.234 2,-5.5 2.846,0.309 4.346,1.975 4.5,5 1.324,-1.38 2.657,-1.714 4,-1 0.18,-1.988 0.014,-3.988 -0.5,-6 9.461,-2.366 19.127,-3.366 29,-3 z"
       id="path473" />
  </g>
  <g
     id="g479">
    <path
       style="opacity:1"
       fill="#d0763f"
       d="m 251.5,124.5 c -9.873,-0.366 -19.539,0.634 -29,3 -1.333,0 -2.667,0 -4,0 10.76,-3.829 21.76,-4.829 33,-3 z"
       id="path477" />
  </g>
  <g
     id="g483">
    <path
       style="opacity:1"
       fill="#131313"
       d="m 299.5,105.5 c 32.918,-0.961 58.085,12.372 75.5,40 9.327,18.657 20.661,35.991 34,52 4.732,9.129 9.732,18.129 15,27 15.839,37.028 27.172,75.361 34,115 1.333,4.667 2.667,9.333 4,14 1.103,17.087 0.437,34.087 -2,51 -0.739,3.562 -2.239,6.728 -4.5,9.5 -13.288,3.874 -26.621,7.541 -40,11 -15.156,0.352 -29.989,2.519 -44.5,6.5 -15.74,-17.886 -22.74,-38.886 -21,-63 2.872,-14.554 4.205,-29.22 4,-44 -0.892,-2.784 -2.058,-5.45 -3.5,-8 7.956,-8.551 15.456,-17.551 22.5,-27 6.663,-10.657 13.33,-21.324 20,-32 1.441,-2.655 2.274,-5.488 2.5,-8.5 0.191,-1.973 -0.476,-3.473 -2,-4.5 -8.486,13.631 -16.986,27.297 -25.5,41 -4.712,5.043 -9.045,10.377 -13,16 -6.395,5.448 -13.228,10.281 -20.5,14.5 -19.426,-0.484 -37.759,-5.15 -55,-14 -8.136,-2.784 -16.469,-4.784 -25,-6 -18.513,-1.823 -37.013,-2.989 -55.5,-3.5 -4.394,1.342 -8.894,1.842 -13.5,1.5 4.414,-2.539 9.081,-4.539 14,-6 6.948,-0.787 13.615,-2.453 20,-5 25.176,-4.754 50.509,-5.754 76,-3 8.469,1.427 16.802,3.094 25,5 3.09,-7.681 6.59,-15.181 10.5,-22.5 3.262,-7.452 5.929,-15.119 8,-23 0.667,-4.667 0.667,-9.333 0,-14 -1.011,-0.837 -2.178,-1.17 -3.5,-1 -0.518,6.719 -2.351,13.052 -5.5,19 -4.368,-4.033 -8.368,-8.366 -12,-13 -7.425,-13.183 -14.592,-26.517 -21.5,-40 -6.628,-6.797 -13.128,-13.797 -19.5,-21 -0.667,-1.333 -0.667,-2.667 0,-4 2.503,-3.002 4.503,-6.335 6,-10 2.819,-8.275 5.486,-16.608 8,-25 -0.714,-13.666 -7.214,-17.166 -19.5,-10.5 -2.833,2.833 -5.667,5.667 -8.5,8.5 -0.167,-0.5 -0.333,-1 -0.5,-1.5 0.853,-2.133 1.186,-4.133 1,-6 5.822,-3.077 11.489,-6.411 17,-10 6.478,-1.697 12.812,-3.53 19,-5.5 z"
       id="path481" />
  </g>
  <g
     id="g487">
    <path
       style="opacity:1"
       fill="#0b0d12"
       d="m 148.5,61.5 c 1.995,30.9848 0.828,61.985 -3.5,93 -15.726,22.728 -31.059,45.728 -46,69 -4,4.667 -8,9.333 -12,14 1.1194,-34.303 1.7861,-68.636 2,-103 20.424,-23.917 40.258,-48.2504 59.5,-73 z"
       id="path485" />
  </g>
  <g
     id="g491">
    <path
       style="opacity:1"
       fill="#181c5d"
       d="m 107.5,183.5 c 1.127,12.408 -3.206,22.408 -13,30 0,-5.333 0,-10.667 0,-16 3.2164,-5.558 7.216,-10.558 12,-15 0.607,0.124 0.94,0.457 1,1 z"
       id="path489" />
  </g>
  <g
     id="g495">
    <path
       style="opacity:1"
       fill="#181c5f"
       d="m 126.5,158.5 c -0.318,4.532 0.015,8.866 1,13 -3.517,6.381 -7.517,12.381 -12,18 -0.998,-0.087 -2.165,-0.42 -3.5,-1 -0.667,-4 -0.667,-8 0,-12 2.919,-6.177 6.586,-11.844 11,-17 1.011,-0.837 2.178,-1.17 3.5,-1 z"
       id="path493" />
  </g>
  <g
     id="g499">
    <path
       style="opacity:1"
       fill="#546fba"
       d="m 127.5,144.5 c 0.086,2.177 0.753,4.177 2,6 -1.016,2.782 -2.016,5.449 -3,8 -1.322,-0.17 -2.489,0.163 -3.5,1 -4.414,5.156 -8.081,10.823 -11,17 -0.667,4 -0.667,8 0,12 1.335,0.58 2.502,0.913 3.5,1 -6.157,11.169 -13.157,21.836 -21,32 -0.6667,1.333 -1.3333,1.333 -2,0 0.5796,-2.811 1.2463,-5.477 2,-8 9.794,-7.592 14.127,-17.592 13,-30 0.617,0.111 1.117,0.444 1.5,1 1.019,-1.769 1.186,-3.436 0.5,-5 2.08,-5.904 3.747,-11.904 5,-18 2.449,-5.134 3.616,-4.468 3.5,2 0.333,-0.333 0.667,-0.667 1,-1 1.153,-3.211 1.82,-6.544 2,-10 2.031,-2.855 4.197,-5.522 6.5,-8 z"
       id="path497" />
  </g>
  <g
     id="g503">
    <path
       style="opacity:1"
       fill="#1b2266"
       d="m 127.5,144.5 c -2.303,2.478 -4.469,5.145 -6.5,8 -0.18,3.456 -0.847,6.789 -2,10 -0.333,0.333 -0.667,0.667 -1,1 0.116,-6.468 -1.051,-7.134 -3.5,-2 -4.636,5.479 -9.136,11.146 -13.5,17 -1.1532,3.211 -1.8198,6.544 -2,10 -0.6667,0.667 -1.3333,1.333 -2,2 -0.6667,-4 -0.6667,-8 0,-12 6.667,-8.667 13.333,-17.333 20,-26 0.259,-3.087 0.759,-6.087 1.5,-9 0.617,-0.111 1.117,-0.444 1.5,-1 0.333,1.667 0.667,3.333 1,5 4.51,-6.363 9.01,-12.696 13.5,-19 1.483,-1.594 2.983,-3.26 4.5,-5 0.667,4 0.667,8 0,12 -0.333,0.333 -0.667,0.667 -1,1 -0.202,-1.756 -0.702,-3.422 -1.5,-5 -3.415,4.076 -6.415,8.409 -9,13 z"
       id="path501" />
  </g>
  <g
     id="g507">
    <path
       style="opacity:1"
       fill="#7b8fc9"
       d="m 106.5,130.5 c -0.331,7.696 0.003,15.362 1,23 3.371,-3.371 6.371,-7.037 9,-11 0.992,-0.172 1.658,0.162 2,1 -0.741,2.913 -1.241,5.913 -1.5,9 -6.667,8.667 -13.333,17.333 -20,26 -0.6667,4 -0.6667,8 0,12 0.6667,-0.667 1.3333,-1.333 2,-2 0.1802,-3.456 0.8468,-6.789 2,-10 4.364,-5.854 8.864,-11.521 13.5,-17 -1.253,6.096 -2.92,12.096 -5,18 0.686,1.564 0.519,3.231 -0.5,5 -0.383,-0.556 -0.883,-0.889 -1.5,-1 -0.06,-0.543 -0.393,-0.876 -1,-1 -4.784,4.442 -8.7836,9.442 -12,15 0,-2 0,-4 0,-6 0.8276,-5.819 1.3276,-11.819 1.5,-18 2,-0.667 3.3333,-2 4,-4 1.001,-5.683 2.668,-11.017 5,-16 0.171,-7.844 0.671,-15.511 1.5,-23 z"
       id="path505" />
  </g>
  <g
     id="g511">
    <path
       style="opacity:1"
       fill="#131959"
       d="m 143.5,133.5 c 0.166,5.676 -0.001,11.343 -0.5,17 -3.522,5.066 -7.022,10.066 -10.5,15 -2.939,-7.593 -2.106,-14.927 2.5,-22 2.698,-3.525 5.531,-6.858 8.5,-10 z"
       id="path509" />
  </g>
  <g
     id="g515">
    <path
       style="opacity:1"
       fill="#d1d9e8"
       d="m 104.5,125.5 c 0.597,0.235 0.93,0.735 1,1.5 -3.189,11.068 -6.8556,21.901 -11,32.5 -0.1664,-7.674 3e-4,-15.341 0.5,-23 3.0316,-3.859 6.198,-7.526 9.5,-11 z"
       id="path513" />
  </g>
  <g
     id="g519">
    <path
       style="opacity:1"
       fill="#afbcdd"
       d="m 125.5,100.5 c -1.614,2.893 -2.947,5.893 -4,9 -5.388,6.722 -10.388,13.722 -15,21 -0.829,7.489 -1.329,15.156 -1.5,23 -2.332,4.983 -3.999,10.317 -5,16 -0.6667,2 -2,3.333 -4,4 -0.1724,6.181 -0.6724,12.181 -1.5,18 0,-10.667 0,-21.333 0,-32 4.1444,-10.599 7.811,-21.432 11,-32.5 -0.07,-0.765 -0.403,-1.265 -1,-1.5 6.654,-8.651 13.654,-16.984 21,-25 z"
       id="path517" />
  </g>
  <g
     id="g523">
    <path
       style="opacity:1"
       fill="#1b2260"
       d="m 131.5,98.5 c 0.41,8.75 -0.09,17.416 -1.5,26 -4.266,6.209 -8.766,12.209 -13.5,18 -2.629,3.963 -5.629,7.629 -9,11 -0.997,-7.638 -1.331,-15.304 -1,-23 4.612,-7.278 9.612,-14.278 15,-21 2.723,-3.086 5.223,-6.42 7.5,-10 0.671,-0.7524 1.504,-1.0858 2.5,-1 z"
       id="path521" />
  </g>
  <g
     id="g527">
    <path
       style="opacity:1"
       fill="#4162b8"
       d="m 143.5,96.5 c 0,12 0,24 0,36 0,0.333 0,0.667 0,1 -2.969,3.142 -5.802,6.475 -8.5,10 -4.606,7.073 -5.439,14.407 -2.5,22 -1.656,1.96 -3.323,3.96 -5,6 -0.985,-4.134 -1.318,-8.468 -1,-13 0.984,-2.551 1.984,-5.218 3,-8 -1.247,-1.823 -1.914,-3.823 -2,-6 2.585,-4.591 5.585,-8.924 9,-13 0.798,1.578 1.298,3.244 1.5,5 0.333,-0.333 0.667,-0.667 1,-1 0.667,-4 0.667,-8 0,-12 -1.517,1.74 -3.017,3.406 -4.5,5 -0.322,-2.222 0.345,-4.056 2,-5.5 -0.799,-3.777 -0.632,-7.61 0.5,-11.5 2.863,-4.774 5.03,-9.774 6.5,-15 z"
       id="path525" />
  </g>
  <g
     id="g531">
    <path
       style="opacity:1"
       fill="#5673c0"
       d="m 140.5,82.5 c 1,0 2,0 3,0 0,4.6667 0,9.3333 0,14 -1.47,5.226 -3.637,10.226 -6.5,15 -1.132,3.89 -1.299,7.723 -0.5,11.5 -1.655,1.444 -2.322,3.278 -2,5.5 -4.49,6.304 -8.99,12.637 -13.5,19 -0.333,-1.667 -0.667,-3.333 -1,-5 -0.383,0.556 -0.883,0.889 -1.5,1 -0.342,-0.838 -1.008,-1.172 -2,-1 4.734,-5.791 9.234,-11.791 13.5,-18 1.41,-8.584 1.91,-17.25 1.5,-26 0.823,3.477 1.323,7.144 1.5,11 0.844,-3.711 1.844,-7.377 3,-11 0.961,-2.1241 2.128,-3.2907 3.5,-3.5 -0.51,-1.8261 -1.344,-1.9928 -2.5,-0.5 -0.564,-2.0618 -0.064,-3.8951 1.5,-5.5 -0.737,-2.4165 -0.07,-4.5831 2,-6.5 z"
       id="path529" />
  </g>
  <g
     id="g535">
    <path
       style="opacity:1"
       fill="#4f649c"
       d="m 143.5,132.5 c 0,-12 0,-24 0,-36 0,-4.6667 0,-9.3333 0,-14 -1,0 -2,0 -3,0 0.898,-2.4052 2.398,-4.4052 4.5,-6 -0.13,18.7844 -0.63,37.451 -1.5,56 z"
       id="path533" />
  </g>
  <g
     id="g539">
    <path
       style="opacity:1"
       fill="#7886c2"
       d="m 126.5,106.5 c 1,0 2,0 3,0 0.339,5.43 -0.161,10.764 -1.5,16 -5.231,8.566 -11.231,16.566 -18,24 -1.911,-5.579 -1.911,-11.245 0,-17 5.509,-7.696 11.009,-15.363 16.5,-23 z"
       id="path537" />
  </g>
  <g
     id="g543">
    <path
       style="opacity:1"
       fill="#1f2b6a"
       d="m 126.5,119.5 c 0.965,1.221 0.798,2.554 -0.5,4 -4.667,6 -9.333,12 -14,18 -0.315,-1.408 0.018,-2.741 1,-4 4.752,-5.851 9.252,-11.851 13.5,-18 z"
       id="path541" />
  </g>
  <g
     id="g547">
    <path
       style="opacity:1"
       fill="#202c69"
       d="m 125.5,115.5 c 1.528,0.017 2.028,0.684 1.5,2 -5,6.333 -10,12.667 -15,19 -0.667,-0.667 -0.667,-1.333 0,-2 5.01,-6.04 9.51,-12.374 13.5,-19 z"
       id="path545" />
  </g>
  <g
     id="g551">
    <path
       style="opacity:1"
       fill="#202762"
       d="m 126.5,109.5 c 1.073,0.751 1.24,1.751 0.5,3 -5,6.333 -10,12.667 -15,19 -0.315,-1.408 0.018,-2.741 1,-4 4.717,-5.877 9.217,-11.877 13.5,-18 z"
       id="path549" />
  </g>
  <g
     id="g555">
    <path
       style="opacity:1"
       fill="#7289c7"
       d="m 140.5,82.5 c -2.07,1.9169 -2.737,4.0835 -2,6.5 -1.564,1.6049 -2.064,3.4382 -1.5,5.5 1.156,-1.4928 1.99,-1.3261 2.5,0.5 -1.372,0.2093 -2.539,1.3759 -3.5,3.5 -1.156,3.623 -2.156,7.289 -3,11 -0.177,-3.856 -0.677,-7.523 -1.5,-11 -0.996,-0.0858 -1.829,0.2476 -2.5,1 -2.277,3.58 -4.777,6.914 -7.5,10 1.053,-3.107 2.386,-6.107 4,-9 3.59,-5.4364 7.423,-10.7698 11.5,-16 0.816,-1.3228 1.983,-1.9894 3.5,-2 z"
       id="path553" />
  </g>
  <g
     id="g559">
    <path
       style="opacity:1"
       fill="#5e8bd0"
       d="m 437.5,242.5 c 2.687,-0.164 5.354,0.003 8,0.5 7.603,3.151 15.27,6.151 23,9 13.307,10.112 20.14,23.612 20.5,40.5 0.551,12.059 -0.116,24.059 -2,36 -3.854,5.906 -9.021,7.406 -15.5,4.5 -3.264,-1.119 -5.931,-2.952 -8,-5.5 -3.82,-14.316 -7.654,-28.65 -11.5,-43 -4.152,-14.293 -8.986,-28.293 -14.5,-42 z"
       id="path557" />
  </g>
  <g
     id="g563">
    <path
       style="opacity:1"
       fill="#bcb9ad"
       d="m 176.5,237.5 c 9.214,0.758 18.214,2.591 27,5.5 1.167,1.167 2.333,2.333 3.5,3.5 0.828,4.702 0.662,9.369 -0.5,14 -7.199,1.768 -14.532,2.768 -22,3 -0.203,1.89 0.463,3.39 2,4.5 5.205,3.184 10.539,6.184 16,9 1.017,1.049 1.184,2.216 0.5,3.5 -10.925,2.797 -20.925,7.464 -30,14 -0.667,1 -0.667,2 0,3 1.945,1.363 4.112,2.197 6.5,2.5 6.992,0.5 13.992,0.666 21,0.5 -0.78,5.842 -2.28,11.509 -4.5,17 -3.522,6.513 -9.022,9.513 -16.5,9 -7.865,-1.05 -15.531,-2.883 -23,-5.5 -2.087,-0.792 -3.921,-1.959 -5.5,-3.5 3.868,-28.138 12.368,-54.805 25.5,-80 z"
       id="path561" />
  </g>
  <g
     id="g567">
    <path
       style="opacity:1"
       fill="#eee9b7"
       d="m 208.5,277.5 c 3.398,-0.32 6.732,0.013 10,1 -3.631,1.555 -7.297,1.888 -11,1 0.363,-0.683 0.696,-1.35 1,-2 z"
       id="path565" />
  </g>
  <g
     id="g571">
    <path
       style="opacity:1"
       fill="#fbe7c7"
       d="m 12.5,196.5 c 21.4392,-0.598 42.7725,0.402 64,3 0.4664,24.003 0.7998,48.003 1,72 7.8316,-10.993 15.165,-22.326 22,-34 1.114,1.223 1.281,2.556 0.5,4 -2.4535,3.075 -3.9535,6.575 -4.5,10.5 0.2378,3.071 1.9044,4.571 5,4.5 2.528,-0.263 4.861,-1.096 7,-2.5 7.828,-7.498 13.661,-16.332 17.5,-26.5 0.973,-5.935 -1.527,-8.435 -7.5,-7.5 -2.667,1.333 -4.667,3.333 -6,6 -0.832,0.688 -1.498,0.521 -2,-0.5 5.082,-8.58 10.749,-16.747 17,-24.5 14.665,-0.84 29.331,-1.173 44,-1 14.2,14.532 28.034,29.365 41.5,44.5 1.777,3.22 3.277,6.553 4.5,10 -0.573,2.585 -2.239,3.585 -5,3 1.434,-7.626 -0.899,-13.792 -7,-18.5 -10.035,-5.195 -20.535,-6.695 -31.5,-4.5 -13.39,25.069 -22.556,51.569 -27.5,79.5 0.886,7.553 5.219,11.886 13,13 10.144,3.03 20.477,4.03 31,3 3.372,-0.562 6.205,-2.062 8.5,-4.5 3.409,-5.893 5.409,-12.226 6,-19 0.792,-2.087 1.959,-3.921 3.5,-5.5 14.686,-0.655 29.353,-0.321 44,1 3.584,1.292 7.251,2.292 11,3 15.338,15.33 29.172,31.83 41.5,49.5 6,6.667 12,13.333 18,20 0.667,0.667 0.667,1.333 0,2 -2.74,0.782 -5.574,1.282 -8.5,1.5 -28.089,1.212 -56.089,0.212 -84,-3 -10.839,-0.515 -21.672,-0.348 -32.5,0.5 -27.143,-2.046 -54.309,-3.546 -81.5,-4.5 -4.343,-1.01 -7.51,-3.51 -9.5,-7.5 -26.3645,-46.059 -51.6979,-92.726 -76,-140 -5.8543,-9.057 -11.6877,-18.057 -17.5,-27 z"
       id="path569" />
  </g>
  <g
     id="g575">
    <path
       style="opacity:1"
       fill="#619bf4"
       d="m 138.5,273.5 c 3.179,1.293 6.512,1.96 10,2 -0.711,7.921 -4.377,14.088 -11,18.5 -6.518,5.008 -13.851,8.174 -22,9.5 -5.333,0.333 -10.667,0.667 -16,1 -1,0 -2,0 -3,0 3.4988,-2.25 7.165,-4.25 11,-6 13.169,-0.535 23.336,-6.201 30.5,-17 0.497,-2.646 0.664,-5.313 0.5,-8 z"
       id="path573" />
  </g>
  <g
     id="g579">
    <path
       style="opacity:1"
       fill="#bacbde"
       d="m 138.5,273.5 c 0.164,2.687 -0.003,5.354 -0.5,8 -7.164,10.799 -17.331,16.465 -30.5,17 1.695,-3.699 0.695,-6.533 -3,-8.5 0.909,-2.319 2.575,-2.986 5,-2 1.094,1.78 2.094,3.614 3,5.5 1.34,-1.188 2.007,-2.688 2,-4.5 -1.423,-8.437 -0.59,-8.603 2.5,-0.5 1,1.333 2,1.333 3,0 0.456,-3.072 0.456,-6.072 0,-9 1.117,1.449 1.784,3.116 2,5 1.011,0.837 2.178,1.17 3.5,1 -0.165,-3.35 0.002,-6.683 0.5,-10 1.073,2.047 2.239,4.047 3.5,6 0.818,-2.607 1.318,-5.274 1.5,-8 0.941,1.561 2.108,2.895 3.5,4 0.667,-2.667 1.333,-5.333 2,-8 1.205,1.077 1.872,2.41 2,4 z"
       id="path577" />
  </g>
  <g
     id="g583">
    <path
       style="opacity:1"
       fill="#c2cddc"
       d="m 101.5,275.5 c 0.759,1.936 1.759,3.769 3,5.5 -0.563,2.251 -1.897,3.251 -4,3 -1.8003,-1.812 -3.4669,-3.645 -5,-5.5 1.5301,-1.846 3.5301,-2.846 6,-3 z"
       id="path581" />
  </g>
  <g
     id="g587">
    <path
       style="opacity:1"
       fill="#b4c3de"
       d="m 108.5,271.5 c 0.911,2.451 1.744,4.785 2.5,7 -1.857,-2.7 -4.357,-4.366 -7.5,-5 1.28,-1.431 2.947,-2.098 5,-2 z"
       id="path585" />
  </g>
  <g
     id="g591">
    <path
       style="opacity:1"
       fill="#c0cee4"
       d="m 116.5,269.5 c 1.318,4.192 0.318,4.859 -3,2 -0.111,-0.617 -0.444,-1.117 -1,-1.5 1.293,-0.49 2.627,-0.657 4,-0.5 z"
       id="path589" />
  </g>
  <g
     id="g595">
    <path
       style="opacity:1"
       fill="#619bf2"
       d="m 132.5,261.5 c -0.17,1.322 0.163,2.489 1,3.5 -1.607,-0.019 -3.274,-0.185 -5,-0.5 0.47,4.47 -0.53,4.97 -3,1.5 -1.293,-0.49 -2.627,-0.657 -4,-0.5 -0.17,1.322 0.163,2.489 1,3.5 -0.594,0.464 -1.261,0.631 -2,0.5 -1.502,-2.522 -2.835,-2.522 -4,0 -1.373,-0.157 -2.707,0.01 -4,0.5 0.556,0.383 0.889,0.883 1,1.5 -0.333,0 -0.667,0 -1,0 -0.891,-0.61 -1.891,-0.943 -3,-1 -0.667,0 -1,0.333 -1,1 -2.053,-0.098 -3.72,0.569 -5,2 -1.333,0 -2,0.667 -2,2 -2.4699,0.154 -4.4699,1.154 -6,3 -2.2157,0.703 -4.049,2.036 -5.5,4 -3.5834,5.151 -5.4167,10.818 -5.5,17 -3.6818,-2.871 -5.3484,-6.705 -5,-11.5 1.1618,-6.319 4.1618,-11.653 9,-16 10.3831,-7.301 21.883,-11.135 34.5,-11.5 3.251,0.042 6.417,0.375 9.5,1 z"
       id="path593" />
  </g>
  <g
     id="g599">
    <path
       style="opacity:1"
       fill="#1a1a22"
       d="m 148.5,275.5 c -3.488,-0.04 -6.821,-0.707 -10,-2 -0.128,-1.59 -0.795,-2.923 -2,-4 -0.667,2.667 -1.333,5.333 -2,8 -1.392,-1.105 -2.559,-2.439 -3.5,-4 -0.182,2.726 -0.682,5.393 -1.5,8 -1.261,-1.953 -2.427,-3.953 -3.5,-6 -0.498,3.317 -0.665,6.65 -0.5,10 -1.322,0.17 -2.489,-0.163 -3.5,-1 -0.216,-1.884 -0.883,-3.551 -2,-5 0.456,2.928 0.456,5.928 0,9 -1,1.333 -2,1.333 -3,0 -3.09,-8.103 -3.923,-7.937 -2.5,0.5 0.007,1.812 -0.66,3.312 -2,4.5 -0.906,-1.886 -1.906,-3.72 -3,-5.5 -2.425,-0.986 -4.091,-0.319 -5,2 3.695,1.967 4.695,4.801 3,8.5 -3.835,1.75 -7.5012,3.75 -11,6 -3.2891,1.048 -6.6224,1.548 -10,1.5 -1.729,-1.789 -2.3957,-3.956 -2,-6.5 0.0833,-6.182 1.9166,-11.849 5.5,-17 1.451,-1.964 3.2843,-3.297 5.5,-4 1.5331,1.855 3.1997,3.688 5,5.5 2.103,0.251 3.437,-0.749 4,-3 -1.241,-1.731 -2.241,-3.564 -3,-5.5 0,-1.333 0.667,-2 2,-2 3.143,0.634 5.643,2.3 7.5,5 -0.756,-2.215 -1.589,-4.549 -2.5,-7 0,-0.667 0.333,-1 1,-1 1.906,4.815 4.573,9.149 8,13 1.114,-1.223 1.281,-2.556 0.5,-4 -1.273,-3.097 -3.107,-5.764 -5.5,-8 0.333,0 0.667,0 1,0 3.318,2.859 4.318,2.192 3,-2 1.165,-2.522 2.498,-2.522 4,0 0.739,0.131 1.406,-0.036 2,-0.5 -0.837,-1.011 -1.17,-2.178 -1,-3.5 1.373,-0.157 2.707,0.01 4,0.5 2.47,3.47 3.47,2.97 3,-1.5 1.726,0.315 3.393,0.481 5,0.5 -0.837,-1.011 -1.17,-2.178 -1,-3.5 1.427,-2.524 2.594,-5.19 3.5,-8 0.72,-1.755 1.887,-2.589 3.5,-2.5 2.139,8.091 5.972,15.257 11.5,21.5 0.483,0.948 0.649,1.948 0.5,3 -1,0 -2,0 -3,0 z"
       id="path597" />
  </g>
  <g
     id="g603">
    <path
       style="opacity:1"
       fill="#c0b8c4"
       d="m 105.5,283.5 c 1.837,0.139 2.17,0.806 1,2 -0.798,-0.457 -1.131,-1.124 -1,-2 z"
       id="path601" />
  </g>
  <g
     id="g607">
    <path
       style="opacity:1"
       fill="#cfcbdc"
       d="m 93.5,280.5 c 1.5174,0.011 2.6841,0.677 3.5,2 2.9734,4.474 6.14,8.807 9.5,13 -3.493,3.919 -7.8261,6.585 -13,8 -1.021,-0.502 -1.1877,-1.168 -0.5,-2 1.4194,-0.96 2.9194,-1.793 4.5,-2.5 0.9506,-0.718 1.1172,-1.551 0.5,-2.5 -3.5208,2.709 -7.3541,4.709 -11.5,6 -1.0941,-8.466 1.2392,-15.799 7,-22 z"
       id="path605" />
  </g>
  <g
     id="g611">
    <path
       style="opacity:1"
       fill="#0b0710"
       d="m 90.5,290.5 c 1.3333,0 2.6667,0 4,0 0,1.333 0,2.667 0,4 -2.642,0.012 -3.9754,-1.321 -4,-4 z"
       id="path609" />
  </g>
  <g
     id="g615">
    <path
       style="opacity:1"
       fill="#c5c3d0"
       d="m 102.5,274.5 c 4.59,1.421 7.756,4.421 9.5,9 0.667,1.667 0.667,3.333 0,5 -3.414,-4.566 -6.58,-9.232 -9.5,-14 z"
       id="path613" />
  </g>
  <g
     id="g619">
    <path
       style="opacity:1"
       fill="#cac8d5"
       d="m 120.5,269.5 c 2.879,3.846 4.045,8.179 3.5,13 -2.499,-3.498 -4.332,-7.332 -5.5,-11.5 0.336,-1.03 1.003,-1.53 2,-1.5 z"
       id="path617" />
  </g>
  <g
     id="g623">
    <path
       style="opacity:1"
       fill="#c7c4d1"
       d="m 109.5,270.5 c 1.109,0.057 2.109,0.39 3,1 2.393,2.236 4.227,4.903 5.5,8 0.781,1.444 0.614,2.777 -0.5,4 -3.427,-3.851 -6.094,-8.185 -8,-13 z"
       id="path621" />
  </g>
  <g
     id="g627">
    <path
       style="opacity:1"
       fill="#b8b5c2"
       d="m 141.5,266.5 c 2.442,-0.146 3.109,0.687 2,2.5 3.401,-0.266 5.067,1.234 5,4.5 -2.667,0 -5.333,0 -8,0 0.813,-2.387 1.146,-4.72 1,-7 z"
       id="path625" />
  </g>
  <g
     id="g631">
    <path
       style="opacity:1"
       fill="#c6c4d0"
       d="m 124.5,268.5 c 3.254,1.173 4.42,3.506 3.5,7 -1.879,-2.027 -3.046,-4.36 -3.5,-7 z"
       id="path629" />
  </g>
  <g
     id="g635">
    <path
       style="opacity:1"
       fill="#b5b1be"
       d="m 130.5,266.5 c 0.996,-0.086 1.829,0.248 2.5,1 0.346,1.718 0.846,3.385 1.5,5 -0.333,0.333 -0.667,0.667 -1,1 -1.582,-2.077 -2.582,-4.41 -3,-7 z"
       id="path633" />
  </g>
  <g
     id="g639">
    <path
       style="opacity:1"
       fill="#c6c4d2"
       d="m 141.5,266.5 c -3.602,-0.178 -3.602,-1.178 0,-3 1.062,0.925 1.062,1.925 0,3 z"
       id="path637" />
  </g>
  <g
     id="g643">
    <path
       style="opacity:1"
       fill="#c4c2cc"
       d="m 139.5,259.5 c 0.876,-0.131 1.543,0.202 2,1 -1.121,2.547 -2.788,3.547 -5,3 1.024,-1.352 2.024,-2.685 3,-4 z"
       id="path641" />
  </g>
  <g
     id="g647">
    <path
       style="opacity:1"
       fill="#d3d1dd"
       d="m 137.5,253.5 c 1.877,1.159 2.377,2.826 1.5,5 -1.333,1.333 -2.667,2.667 -4,4 0.696,-2.938 1.53,-5.938 2.5,-9 z"
       id="path645" />
  </g>
  <g
     id="g651">
    <path
       style="opacity:1"
       fill="#868e90"
       d="m 83.5,223.5 c 0.3609,8.895 -0.3058,17.561 -2,26 0.2591,-8.847 0.9258,-17.514 2,-26 z"
       id="path649" />
  </g>
  <g
     id="g655">
    <path
       style="opacity:1"
       fill="#9bb4de"
       d="m 115.5,303.5 c -5.279,1.811 -10.612,2.144 -16,1 5.333,-0.333 10.667,-0.667 16,-1 z"
       id="path653" />
  </g>
  <g
     id="g659">
    <path
       style="opacity:1"
       fill="#e3e4e4"
       d="m 269.5,306.5 c 3.227,1.244 6.561,2.41 10,3.5 1.091,2.064 1.258,4.231 0.5,6.5 -0.718,0.951 -1.551,1.117 -2.5,0.5 -2.171,-3.988 -4.838,-7.488 -8,-10.5 z"
       id="path657" />
  </g>
  <g
     id="g663">
    <path
       style="opacity:1"
       fill="#fafafa"
       d="m 348.5,338.5 c -1.209,4.118 -1.876,8.451 -2,13 -5.448,23.989 -2.614,46.989 8.5,69 1.841,3.683 4.174,7.016 7,10 0.49,1.293 0.657,2.627 0.5,4 -1.699,-0.12 -3.365,-0.454 -5,-1 -8.146,2.524 -16.479,3.858 -25,4 2.832,-18.633 3.332,-37.3 1.5,-56 -1.08,-2.496 -2.414,-4.83 -4,-7 -16.196,-16.775 -31.196,-34.441 -45,-53 -0.667,-2.333 -0.667,-4.667 0,-7 0.388,-0.928 1.055,-1.595 2,-2 15.977,6.195 32.477,9.695 49.5,10.5 2.292,-1.29 4.292,-2.957 6,-5 2.717,-1.033 4.551,-0.2 5.5,2.5 0.499,5.991 0.666,11.991 0.5,18 z"
       id="path661" />
  </g>
  <g
     id="g667">
    <path
       style="opacity:1"
       fill="#565656"
       d="m 348.5,338.5 c 0.344,4.622 -0.323,8.955 -2,13 0.124,-4.549 0.791,-8.882 2,-13 z"
       id="path665" />
  </g>
  <g
     id="g671">
    <path
       style="opacity:1"
       fill="#92a3a8"
       d="m 465.5,409.5 c 4.446,0.806 8.279,2.806 11.5,6 0.667,1.333 0.667,2.667 0,4 -5.554,6.029 -12.387,9.862 -20.5,11.5 -24.545,4.727 -49.212,8.727 -74,12 -4.333,0.667 -8.667,0.667 -13,0 -2.497,-0.412 -4.497,-1.578 -6,-3.5 2.93,-2.399 6.263,-4.232 10,-5.5 22.823,0.355 44.823,-3.645 66,-12 6.237,-1.809 12.57,-3.143 19,-4 3.156,-2.14 5.49,-4.974 7,-8.5 z"
       id="path669" />
  </g>
  <g
     id="g675">
    <path
       style="opacity:1"
       fill="#5f83ba"
       d="m 480.5,421.5 c 0.997,-0.03 1.664,0.47 2,1.5 -3.831,6.768 -9.498,11.434 -17,14 -4.743,1.47 -9.409,3.136 -14,5 -20.651,3.165 -41.318,6.165 -62,9 -8.333,0.667 -16.667,0.667 -25,0 -3.13,-2.128 -5.963,-4.628 -8.5,-7.5 -0.49,-1.293 -0.657,-2.627 -0.5,-4 1.373,-0.157 2.707,0.01 4,0.5 2.333,2.333 4.667,4.667 7,7 3.167,0.167 6.333,0.333 9.5,0.5 22.502,-2.405 45.002,-4.905 67.5,-7.5 10.268,-2.089 19.934,-5.756 29,-11 3.166,-2 5.832,-4.5 8,-7.5 z"
       id="path673" />
  </g>
  <g
     id="g679">
    <path
       style="opacity:1"
       fill="#a2c8d3"
       d="m 328.5,442.5 c -1.446,5.774 -2.112,11.774 -2,18 0.167,23.336 0,46.669 -0.5,70 -2.441,20.266 -4.107,40.6 -5,61 -0.752,3.903 -2.919,4.903 -6.5,3 -1.166,-13.988 -1.333,-27.988 -0.5,-42 1.286,-12.307 2.119,-24.641 2.5,-37 1.44,-10.133 2.107,-20.466 2,-31 2.448,-31.688 2.448,-63.188 0,-94.5 -64.969,-2.915 -129.969,-4.249 -195,-4 -0.5,0.5 -1,1 -1.5,1.5 -2.117,18.265 -2.951,36.598 -2.5,55 -1.051,8.821 -1.717,17.821 -2,27 -1.428,38.038 -3.262,76.038 -5.5,114 -2.522,2.826 -4.522,2.493 -6,-1 -1.028,-3.41 -1.528,-6.91 -1.5,-10.5 2.201,-62.481 3.368,-124.981 3.5,-187.5 -9.6278,-9.255 -17.2945,-19.922 -23,-32 -21.3973,-44.462 -43.5639,-88.462 -66.5,-132 -0.06,-0.543 -0.3933,-0.876 -1,-1 -0.9973,7.303 -1.3306,14.637 -1,22 -1.4429,42.346 -2.9429,84.679 -4.5,127 -1.7261,1.076 -3.55942,1.243 -5.5,0.5 -0.64717,-3.249 -0.98051,-6.582 -1,-10 3.37438,-51.52 5.5411,-103.02 6.5,-154.5 6.6667,10.667 13.3333,21.333 20,32 9.4576,22.41 20.791,43.743 34,64 8.4897,17.648 17.4897,34.981 27,52 5.3982,8.734 11.565,16.9 18.5,24.5 39.002,0.552 78.002,1.219 117,2 33.205,3.94 66.538,5.607 100,5 1.309,5.59 1.975,11.423 2,17.5 -0.39,13.684 -1.057,27.35 -2,41 z"
       id="path677" />
  </g>
  <g
     id="g683">
    <path
       style="opacity:1"
       fill="#e57b38"
       d="m 268.5,441.5 c -0.982,-1.906 -1.982,-3.906 -3,-6 -1.586,1.673 -2.253,3.673 -2,6 -4.295,-0.221 -4.962,1.112 -2,4 -0.333,0.333 -0.667,0.667 -1,1 -0.749,-1.512 -1.916,-2.512 -3.5,-3 -2.154,0.774 -4.321,1.441 -6.5,2 4.011,-3.101 8.178,-6.101 12.5,-9 3.208,-9.458 6.708,-18.791 10.5,-28 2.198,-0.567 4.531,-0.567 7,0 0.157,1.373 -0.01,2.707 -0.5,4 -7.088,8.441 -10.921,18.107 -11.5,29 z"
       id="path681" />
  </g>
  <g
     id="g687">
    <path
       style="opacity:1"
       fill="#f9f9f8"
       d="m 299.5,441.5 c -2.674,6.288 -5.508,12.621 -8.5,19 -5.717,6.716 -11.05,13.716 -16,21 0.369,-6.804 0.869,-13.638 1.5,-20.5 -1.866,-10.425 -2.699,-20.925 -2.5,-31.5 2.926,-5.526 6.093,-10.859 9.5,-16 4.636,-1.652 9.469,-2.985 14.5,-4 0.772,0.145 1.439,0.478 2,1 0.61,6.658 1.11,13.325 1.5,20 0.202,3.893 -0.465,7.56 -2,11 z"
       id="path685" />
  </g>
  <g
     id="g691">
    <path
       style="opacity:1"
       fill="#f2f2f1"
       d="m 311.5,402.5 c 1.667,0 3.333,0 5,0 0.386,11.406 -0.281,22.74 -2,34 -7.97,-4.313 -11.97,-11.147 -12,-20.5 0.655,-6.165 3.655,-10.665 9,-13.5 z"
       id="path689" />
  </g>
  <g
     id="g695">
    <path
       style="opacity:1"
       fill="#f4f5f4"
       d="m 272.5,391.5 c 14.092,0.505 28.092,1.839 42,4 -11.529,11.217 -24.862,14.051 -40,8.5 -3.814,-3.86 -4.48,-8.026 -2,-12.5 z"
       id="path693" />
  </g>
  <g
     id="g699">
    <path
       style="opacity:1"
       fill="#757571"
       d="m 22.5,237.5 c -0.6667,2 -1.3333,4 -2,6 -0.3076,-2.424 0.0258,-4.757 1,-7 0.6067,0.124 0.94,0.457 1,1 z"
       id="path697" />
  </g>
  <g
     id="g703">
    <path
       style="opacity:1"
       fill="#52646b"
       d="m 18.5,220.5 c -0.6667,7 -1.3333,14 -2,21 -0.3306,-7.363 0.0027,-14.697 1,-22 0.6067,0.124 0.94,0.457 1,1 z"
       id="path701" />
  </g>
  <g
     id="g707">
    <path
       style="opacity:1"
       fill="#191919"
       d="m 410.5,452.5 c 2.333,0 4.667,0 7,0 -0.167,12.671 0,25.338 0.5,38 0.484,5.486 3.317,7.319 8.5,5.5 11.129,-4.868 22.129,-4.534 33,1 1.537,1.11 2.203,2.61 2,4.5 -5.508,-0.335 -10.841,-1.502 -16,-3.5 -3.333,-0.667 -6.667,-0.667 -10,0 -5.023,3.178 -10.357,5.845 -16,8 -1.549,1.214 -2.715,2.714 -3.5,4.5 -2.21,9.388 -4.543,18.721 -7,28 -2.721,2.814 -5.221,2.648 -7.5,-0.5 2.09,-7.604 4.59,-15.104 7.5,-22.5 1.213,-3.268 1.546,-6.601 1,-10 -6.458,-3.322 -13.292,-4.489 -20.5,-3.5 -3.75,2.207 -7.75,3.873 -12,5 -2.402,0.814 -4.735,0.647 -7,-0.5 2.666,-4.17 6.332,-7.003 11,-8.5 9.515,-1.7 19.015,-3.2 28.5,-4.5 0.438,-13.812 0.604,-27.479 0.5,-41 z"
       id="path705" />
  </g>
  <g
     id="g711">
    <path
       style="opacity:1"
       fill="#828281"
       d="m 397.5,455.5 c -4.901,1.552 -10.068,2.219 -15.5,2 -4.015,-10e-4 -7.849,-0.335 -11.5,-1 9.028,0.18 18.028,-0.153 27,-1 z"
       id="path709" />
  </g>
  <g
     id="g715">
    <path
       style="opacity:1"
       fill="#4d6266"
       d="m 328.5,442.5 c -0.023,6.212 -0.69,12.212 -2,18 -0.112,-6.226 0.554,-12.226 2,-18 z"
       id="path713" />
  </g>
  <g
     id="g719">
    <path
       style="opacity:1"
       fill="#c97038"
       d="m 269.5,443.5 c 0.79,1.109 1.29,2.442 1.5,4 0.984,11.091 0.484,22.091 -1.5,33 -1.611,-0.82 -2.278,-2.154 -2,-4 1.977,-10.616 2.644,-21.616 2,-33 z"
       id="path717" />
  </g>
  <g
     id="g723">
    <path
       style="opacity:1"
       fill="#f87e2e"
       d="m 268.5,441.5 c 0.333,0.667 0.667,1.333 1,2 0.644,11.384 -0.023,22.384 -2,33 -1.615,-4.513 -3.615,-8.846 -6,-13 -3.372,5.612 -5.872,11.612 -7.5,18 -1.529,1.229 -2.696,2.729 -3.5,4.5 -0.948,0.483 -1.948,0.649 -3,0.5 -0.317,-4.202 0.017,-8.202 1,-12 0.617,-0.111 1.117,-0.444 1.5,-1 1.156,-4.96 1.989,-9.96 2.5,-15 -1.291,-0.237 -2.291,0.096 -3,1 -3.452,2.7 -6.786,5.366 -10,8 -1.109,0.057 -2.109,0.39 -3,1 -0.876,0.131 -1.543,-0.202 -2,-1 1.4,-2.535 2.4,-5.202 3,-8 2.948,-5.948 7.281,-10.615 13,-14 2.179,-0.559 4.346,-1.226 6.5,-2 1.584,0.488 2.751,1.488 3.5,3 0.333,-0.333 0.667,-0.667 1,-1 -2.962,-2.888 -2.295,-4.221 2,-4 -0.253,-2.327 0.414,-4.327 2,-6 1.018,2.094 2.018,4.094 3,6 z"
       id="path721" />
  </g>
  <g
     id="g727">
    <path
       style="opacity:1"
       fill="#283437"
       d="m 119.5,442.5 c 0.377,9.227 -0.289,18.227 -2,27 0.283,-9.179 0.949,-18.179 2,-27 z"
       id="path725" />
  </g>
  <g
     id="g731">
    <path
       style="opacity:1"
       fill="#cb723a"
       d="m 249.5,459.5 c 0.709,-0.904 1.709,-1.237 3,-1 -0.511,5.04 -1.344,10.04 -2.5,15 -0.383,0.556 -0.883,0.889 -1.5,1 0.535,-4.011 1.202,-8.011 2,-12 -0.02,-1.226 -0.353,-2.226 -1,-3 z"
       id="path729" />
  </g>
  <g
     id="g735">
    <path
       style="opacity:1"
       fill="#e7e7e7"
       d="m 313.5,442.5 c 0.665,2.982 0.998,6.148 1,9.5 -0.517,9.832 -1.017,19.666 -1.5,29.5 -3.015,-5.697 -5.182,-11.697 -6.5,-18 1.742,-7.227 4.076,-14.227 7,-21 z"
       id="path733" />
  </g>
  <g
     id="g739">
    <path
       style="opacity:1"
       fill="#c27646"
       d="m 237.5,459.5 c -0.6,2.798 -1.6,5.465 -3,8 0.457,0.798 1.124,1.131 2,1 -1.941,1.174 -3.441,2.841 -4.5,5 -0.107,-5.448 1.726,-10.115 5.5,-14 z"
       id="path737" />
  </g>
  <g
     id="g743">
    <path
       style="opacity:1"
       fill="#aaaaaa"
       d="m 423.5,454.5 c 0.665,3.149 0.998,6.482 1,10 0.132,5.577 -0.535,10.91 -2,16 0.703,-8.649 1.036,-17.315 1,-26 z"
       id="path741" />
  </g>
  <g
     id="g747">
    <path
       style="opacity:1"
       fill="#f67e30"
       d="m 312.5,486.5 c 0.162,2.027 -0.005,4.027 -0.5,6 -3.026,-2.526 -6.193,-4.86 -9.5,-7 -1.301,3.603 -2.967,6.936 -5,10 -0.802,1.452 -1.302,3.118 -1.5,5 -0.333,-5.333 -0.667,-10.667 -1,-16 -0.232,-1.237 -0.732,-2.237 -1.5,-3 -2.825,-0.419 -4.991,0.581 -6.5,3 -2.78,4.562 -5.28,9.228 -7.5,14 -0.65,0.304 -1.317,0.637 -2,1 -0.333,-1.667 -0.667,-3.333 -1,-5 0.376,-3.74 1.043,-7.406 2,-11 0.209,-1.422 0.709,-2.755 1.5,-4 10.513,-10.031 17.68,-22.031 21.5,-36 1.655,-2.556 3.321,-5.223 5,-8 2.205,1.371 3.872,3.204 5,5.5 -6.171,8.515 -8.671,18.015 -7.5,28.5 2.86,5.72 5.693,11.386 8.5,17 z"
       id="path745" />
  </g>
  <g
     id="g751">
    <path
       style="opacity:1"
       fill="#170e0d"
       d="m 283.5,413.5 c -3.407,5.141 -6.574,10.474 -9.5,16 -0.199,10.575 0.634,21.075 2.5,31.5 -0.631,6.862 -1.131,13.696 -1.5,20.5 4.95,-7.284 10.283,-14.284 16,-21 2.992,-6.379 5.826,-12.712 8.5,-19 1.333,0 2,0.667 2,2 -3.82,13.969 -10.987,25.969 -21.5,36 -0.791,1.245 -1.291,2.578 -1.5,4 -2.461,3.138 -3.461,6.805 -3,11 0.167,2.333 0.333,4.667 0.5,7 2.005,0.532 3.171,-0.468 3.5,-3 2.22,-4.772 4.72,-9.438 7.5,-14 1.509,-2.419 3.675,-3.419 6.5,-3 0,5 0,10 0,15 -0.164,2.687 0.003,5.354 0.5,8 0.71,1.473 1.876,2.14 3.5,2 0,-1 0,-2 0,-3 0,-2.667 0,-5.333 0,-8 2.033,-3.064 3.699,-6.397 5,-10 3.307,2.14 6.474,4.474 9.5,7 0.495,-1.973 0.662,-3.973 0.5,-6 0.652,0.949 0.986,2.115 1,3.5 0.018,2.442 -0.649,4.608 -2,6.5 -2.128,-1.903 -4.461,-3.569 -7,-5 -0.586,0.209 -1.086,0.543 -1.5,1 -2.245,6.134 -3.411,12.468 -3.5,19 -2.222,0.322 -4.056,-0.345 -5.5,-2 -1.904,-3.423 -2.737,-7.09 -2.5,-11 0.323,-3.726 -0.011,-7.393 -1,-11 -0.607,0.124 -0.94,0.457 -1,1 -2.591,0.754 -4.424,2.421 -5.5,5 -2.078,5.075 -4.244,10.075 -6.5,15 -0.978,-0.477 -1.811,-1.143 -2.5,-2 -2.04,-5.447 -3.04,-11.114 -3,-17 -1.396,2.027 -3.062,2.36 -5,1 0.128,-6.278 -1.372,-12.111 -4.5,-17.5 -0.832,-0.688 -1.498,-0.521 -2,0.5 -2.265,4.773 -4.765,9.439 -7.5,14 -1.351,1.519 -2.851,2.852 -4.5,4 -3.624,-8.028 -3.957,-16.195 -1,-24.5 -1.077,-0.47 -2.077,-0.303 -3,0.5 -1.499,-0.994 -3.166,-0.994 -5,0 3.214,-2.634 6.548,-5.3 10,-8 0.647,0.774 0.98,1.774 1,3 -0.798,3.989 -1.465,7.989 -2,12 -0.983,3.798 -1.317,7.798 -1,12 1.052,0.149 2.052,-0.017 3,-0.5 0.804,-1.771 1.971,-3.271 3.5,-4.5 1.628,-6.388 4.128,-12.388 7.5,-18 2.385,4.154 4.385,8.487 6,13 -0.278,1.846 0.389,3.18 2,4 1.984,-10.909 2.484,-21.909 1.5,-33 -0.21,-1.558 -0.71,-2.891 -1.5,-4 -0.333,-0.667 -0.667,-1.333 -1,-2 0.579,-10.893 4.412,-20.559 11.5,-29 0.49,-1.293 0.657,-2.627 0.5,-4 -2.469,-0.567 -4.802,-0.567 -7,0 0.12,-1.086 0.787,-1.753 2,-2 2.319,0.564 4.653,1.064 7,1.5 0.906,1.699 1.239,3.533 1,5.5 z"
       id="path749" />
  </g>
  <g
     id="g755">
    <path
       style="opacity:1"
       fill="#d87e47"
       d="m 293.5,481.5 c 0.768,0.763 1.268,1.763 1.5,3 0.333,5.333 0.667,10.667 1,16 0.198,-1.882 0.698,-3.548 1.5,-5 0,2.667 0,5.333 0,8 -0.722,0.418 -1.222,1.084 -1.5,2 -0.841,-3.128 -1.675,-6.128 -2.5,-9 0,-5 0,-10 0,-15 z"
       id="path753" />
  </g>
  <g
     id="g759">
    <path
       style="opacity:1"
       fill="#7f8285"
       d="m 289.5,488.5 c 0.06,-0.543 0.393,-0.876 1,-1 0.989,3.607 1.323,7.274 1,11 -0.667,-3.333 -1.333,-6.667 -2,-10 z"
       id="path757" />
  </g>
  <g
     id="g763">
    <path
       style="opacity:1"
       fill="#a76131"
       d="m 278.5,483.5 c -0.957,3.594 -1.624,7.26 -2,11 0.333,1.667 0.667,3.333 1,5 0.683,-0.363 1.35,-0.696 2,-1 -0.329,2.532 -1.495,3.532 -3.5,3 -0.167,-2.333 -0.333,-4.667 -0.5,-7 -0.461,-4.195 0.539,-7.862 3,-11 z"
       id="path761" />
  </g>
  <g
     id="g767">
    <path
       style="opacity:1"
       fill="#421c11"
       d="m 293.5,496.5 c 0.825,2.872 1.659,5.872 2.5,9 0.278,-0.916 0.778,-1.582 1.5,-2 0,1 0,2 0,3 -1.624,0.14 -2.79,-0.527 -3.5,-2 -0.497,-2.646 -0.664,-5.313 -0.5,-8 z"
       id="path765" />
  </g>
  <g
     id="g771">
    <path
       style="opacity:1"
       fill="#687b82"
       d="m 318.5,484.5 c 0.107,10.534 -0.56,20.867 -2,31 -0.03,-10.529 0.637,-20.862 2,-31 z"
       id="path769" />
  </g>
</svg>
