<?xml version="1.0" encoding="UTF-8"?>
<!DOCTYPE svg PUBLIC "-//W3C//DTD SVG 1.1//EN" "http://www.w3.org/Graphics/SVG/1.1/DTD/svg11.dtd">
<svg xmlns="http://www.w3.org/2000/svg" version="1.1" width="495px" height="600px" style="shape-rendering:geometricPrecision; text-rendering:geometricPrecision; image-rendering:optimizeQuality; fill-rule:evenodd; clip-rule:evenodd" xmlns:xlink="http://www.w3.org/1999/xlink">
<g><path style="opacity:1" fill="#fefefe" d="M -0.5,-0.5 C 164.5,-0.5 329.5,-0.5 494.5,-0.5C 494.5,97.1667 494.5,194.833 494.5,292.5C 492.693,285.351 491.193,278.018 490,270.5C 486.484,259.962 479.651,252.462 469.5,248C 458.051,244.482 446.718,240.649 435.5,236.5C 430.789,224.613 424.956,213.28 418,202.5C 402.754,181.684 388.754,160.017 376,137.5C 352.78,107.155 322.28,95.6554 284.5,103C 274.499,106.664 265.833,112.331 258.5,120C 242.439,119.172 226.773,121.172 211.5,126C 208.274,127.106 205.607,128.939 203.5,131.5C 203.774,136.288 205.274,140.621 208,144.5C 215.912,154.414 225.078,162.914 235.5,170C 240.833,175.333 246.167,180.667 251.5,186C 263.228,192.281 274.394,199.448 285,207.5C 289.764,217.569 291.93,228.236 291.5,239.5C 278.628,239.643 266.294,242.143 254.5,247C 244.433,249.032 234.433,251.032 224.5,253C 220.052,246.218 215.219,239.718 210,233.5C 197.863,220.362 185.363,207.529 172.5,195C 158.488,194.833 144.488,194.333 130.5,193.5C 133.476,189.356 136.643,185.356 140,181.5C 144.573,173.255 149.573,165.255 155,157.5C 158.585,118.292 159.918,78.959 159,39.5C 158.586,39.0426 158.086,38.7093 157.5,38.5C 133.115,63.3046 110.615,89.6379 90,117.5C 86.3333,121.167 82.6667,124.833 79,128.5C 79.5607,150.171 79.3941,171.838 78.5,193.5C 56.3528,192.112 34.1861,191.112 12,190.5C 9.96578,190.354 8.29911,191.02 7,192.5C 5.72111,223.47 5.05445,254.47 5,285.5C 2.54444,311.122 1.04444,336.788 0.5,362.5C 0.166667,362.5 -0.166667,362.5 -0.5,362.5C -0.5,241.5 -0.5,120.5 -0.5,-0.5 Z"/></g>
<g><path style="opacity:1" fill="#fdfdfd" d="M 22.5,237.5 C 35.9738,268.782 50.8071,299.449 67,329.5C 71.726,340.619 76.726,351.619 82,362.5C 88.9105,371.322 95.5772,380.322 102,389.5C 101.69,446.194 100.19,502.86 97.5,559.5C 97.6667,566.833 97.8333,574.167 98,581.5C 98.2414,584.289 98.908,586.956 100,589.5C 101.822,591.045 103.989,591.712 106.5,591.5C 110.517,591.14 114.517,590.64 118.5,590C 119,589.5 119.5,589 120,588.5C 123.241,522.334 125.741,456.167 127.5,390C 156.262,391.764 185.096,391.93 214,390.5C 231.488,391.514 248.988,392.347 266.5,393C 267.102,397.561 268.102,402.061 269.5,406.5C 266.175,414.823 263.008,423.156 260,431.5C 258.199,434.163 255.699,435.997 252.5,437C 245.978,442.523 239.812,448.357 234,454.5C 228.947,463.141 226.781,472.474 227.5,482.5C 228.873,482.657 230.207,482.49 231.5,482C 234.304,475.701 238.637,470.868 244.5,467.5C 245.423,466.697 246.423,466.53 247.5,467C 244.543,475.305 244.876,483.472 248.5,491.5C 250.149,490.352 251.649,489.019 253,487.5C 255.735,482.939 258.235,478.273 260.5,473.5C 261.002,472.479 261.668,472.312 262.5,473C 265.628,478.389 267.128,484.222 267,490.5C 268.938,491.86 270.604,491.527 272,489.5C 271.96,495.386 272.96,501.053 275,506.5C 275.689,507.357 276.522,508.023 277.5,508.5C 279.756,503.575 281.922,498.575 284,493.5C 285.076,490.921 286.909,489.254 289.5,488.5C 290.167,491.833 290.833,495.167 291.5,498.5C 291.263,502.41 292.096,506.077 294,509.5C 295.444,511.155 297.278,511.822 299.5,511.5C 299.589,504.968 300.755,498.634 303,492.5C 303.414,492.043 303.914,491.709 304.5,491.5C 307.039,492.931 309.372,494.597 311.5,496.5C 311.833,523.5 310.333,550.5 307,577.5C 306.333,583.5 306.333,589.5 307,595.5C 307.833,596.333 308.667,597.167 309.5,598C 314.489,598.499 319.489,598.666 324.5,598.5C 327.237,570.512 329.737,542.512 332,514.5C 331.659,490.493 331.826,466.493 332.5,442.5C 338.812,441.502 345.146,441.002 351.5,441C 354.015,444.234 356.349,447.567 358.5,451C 361.89,454.196 365.89,456.029 370.5,456.5C 374.151,457.165 377.985,457.499 382,457.5C 387.432,457.719 392.599,457.052 397.5,455.5C 399.5,455.5 401.5,455.5 403.5,455.5C 403.884,466.534 403.884,477.534 403.5,488.5C 394.736,489.824 386.069,491.657 377.5,494C 375.5,495.333 373.5,496.667 371.5,498C 368.928,503.794 365.761,509.294 362,514.5C 360.891,520.851 363.058,525.684 368.5,529C 374.469,530.71 378.303,528.543 380,522.5C 380.405,518.787 380.405,515.121 380,511.5C 387.475,505.872 395.309,505.205 403.5,509.5C 404.641,511.421 404.808,513.421 404,515.5C 401.781,519.271 400.115,523.271 399,527.5C 398.645,534.345 398.145,541.178 397.5,548C 398.483,556.83 403.149,559.496 411.5,556C 416.126,551.205 416.46,546.205 412.5,541C 416.945,532.33 419.779,523.164 421,513.5C 422.793,510.705 424.96,508.205 427.5,506C 431.685,505.242 435.685,503.909 439.5,502C 448.904,500.271 453.071,504.104 452,513.5C 456.37,520.7 462.203,522.2 469.5,518C 474.021,512.573 473.187,508.073 467,504.5C 465.414,496.907 460.914,491.74 453.5,489C 443.632,486.591 433.966,487.091 424.5,490.5C 422.974,487.346 422.307,484.013 422.5,480.5C 423.965,475.41 424.632,470.077 424.5,464.5C 424.498,460.982 424.165,457.649 423.5,454.5C 423.5,453.5 423.5,452.5 423.5,451.5C 441.641,450.176 458.974,445.676 475.5,438C 482.046,433.405 485.213,427.239 485,419.5C 480.517,413.421 474.851,408.755 468,405.5C 469.429,390.234 469.762,374.9 469,359.5C 466.3,351.651 465.467,343.651 466.5,335.5C 474.211,340.935 481.711,340.601 489,334.5C 490.751,332.51 491.751,330.177 492,327.5C 492.837,319.349 493.67,311.349 494.5,303.5C 494.5,402.167 494.5,500.833 494.5,599.5C 329.5,599.5 164.5,599.5 -0.5,599.5C -0.5,520.5 -0.5,441.5 -0.5,362.5C -0.166667,362.5 0.166667,362.5 0.5,362.5C 0.5,366.167 0.5,369.833 0.5,373.5C 6.16667,373.5 11.8333,373.5 17.5,373.5C 18.4351,330.161 19.4351,286.828 20.5,243.5C 21.1667,241.5 21.8333,239.5 22.5,237.5 Z"/></g>
<g><path style="opacity:1" fill="#0d0d0e" d="M 494.5,292.5 C 494.5,296.167 494.5,299.833 494.5,303.5C 493.67,311.349 492.837,319.349 492,327.5C 491.751,330.177 490.751,332.51 489,334.5C 481.711,340.601 474.211,340.935 466.5,335.5C 465.467,343.651 466.3,351.651 469,359.5C 469.762,374.9 469.429,390.234 468,405.5C 474.851,408.755 480.517,413.421 485,419.5C 485.213,427.239 482.046,433.405 475.5,438C 458.974,445.676 441.641,450.176 423.5,451.5C 423.5,452.5 423.5,453.5 423.5,454.5C 423.536,463.185 423.203,471.851 422.5,480.5C 422.307,484.013 422.974,487.346 424.5,490.5C 433.966,487.091 443.632,486.591 453.5,489C 460.914,491.74 465.414,496.907 467,504.5C 473.187,508.073 474.021,512.573 469.5,518C 462.203,522.2 456.37,520.7 452,513.5C 453.071,504.104 448.904,500.271 439.5,502C 435.685,503.909 431.685,505.242 427.5,506C 424.96,508.205 422.793,510.705 421,513.5C 419.779,523.164 416.945,532.33 412.5,541C 416.46,546.205 416.126,551.205 411.5,556C 403.149,559.496 398.483,556.83 397.5,548C 398.145,541.178 398.645,534.345 399,527.5C 400.115,523.271 401.781,519.271 404,515.5C 404.808,513.421 404.641,511.421 403.5,509.5C 395.309,505.205 387.475,505.872 380,511.5C 380.405,515.121 380.405,518.787 380,522.5C 378.303,528.543 374.469,530.71 368.5,529C 363.058,525.684 360.891,520.851 362,514.5C 365.761,509.294 368.928,503.794 371.5,498C 373.5,496.667 375.5,495.333 377.5,494C 386.069,491.657 394.736,489.824 403.5,488.5C 403.884,477.534 403.884,466.534 403.5,455.5C 401.5,455.5 399.5,455.5 397.5,455.5C 388.528,456.347 379.528,456.68 370.5,456.5C 365.89,456.029 361.89,454.196 358.5,451C 356.349,447.567 354.015,444.234 351.5,441C 345.146,441.002 338.812,441.502 332.5,442.5C 331.826,466.493 331.659,490.493 332,514.5C 329.737,542.512 327.237,570.512 324.5,598.5C 319.489,598.666 314.489,598.499 309.5,598C 308.667,597.167 307.833,596.333 307,595.5C 306.333,589.5 306.333,583.5 307,577.5C 310.333,550.5 311.833,523.5 311.5,496.5C 312.851,494.608 313.518,492.442 313.5,490C 313.486,488.615 313.152,487.449 312.5,486.5C 309.693,480.886 306.86,475.22 304,469.5C 302.829,459.015 305.329,449.515 311.5,441C 310.372,438.704 308.705,436.871 306.5,435.5C 304.821,438.277 303.155,440.944 301.5,443.5C 301.5,442.167 300.833,441.5 299.5,441.5C 301.035,438.06 301.702,434.393 301.5,430.5C 301.11,423.825 300.61,417.158 300,410.5C 299.439,409.978 298.772,409.645 298,409.5C 292.969,410.515 288.136,411.848 283.5,413.5C 283.739,411.533 283.406,409.699 282.5,408C 280.153,407.564 277.819,407.064 275.5,406.5C 274.287,406.747 273.62,407.414 273.5,408.5C 269.708,417.709 266.208,427.042 263,436.5C 258.678,439.399 254.511,442.399 250.5,445.5C 244.781,448.885 240.448,453.552 237.5,459.5C 233.726,463.385 231.893,468.052 232,473.5C 233.059,471.341 234.559,469.674 236.5,468.5C 237.391,467.89 238.391,467.557 239.5,467.5C 241.334,466.506 243.001,466.506 244.5,467.5C 238.637,470.868 234.304,475.701 231.5,482C 230.207,482.49 228.873,482.657 227.5,482.5C 226.781,472.474 228.947,463.141 234,454.5C 239.812,448.357 245.978,442.523 252.5,437C 255.699,435.997 258.199,434.163 260,431.5C 263.008,423.156 266.175,414.823 269.5,406.5C 268.102,402.061 267.102,397.561 266.5,393C 248.988,392.347 231.488,391.514 214,390.5C 185.096,391.93 156.262,391.764 127.5,390C 125.741,456.167 123.241,522.334 120,588.5C 119.5,589 119,589.5 118.5,590C 114.517,590.64 110.517,591.14 106.5,591.5C 103.989,591.712 101.822,591.045 100,589.5C 98.908,586.956 98.2414,584.289 98,581.5C 97.8333,574.167 97.6667,566.833 97.5,559.5C 100.19,502.86 101.69,446.194 102,389.5C 95.5772,380.322 88.9105,371.322 82,362.5C 76.726,351.619 71.726,340.619 67,329.5C 50.8071,299.449 35.9738,268.782 22.5,237.5C 22.44,236.957 22.1067,236.624 21.5,236.5C 20.5258,238.743 20.1924,241.076 20.5,243.5C 19.4351,286.828 18.4351,330.161 17.5,373.5C 11.8333,373.5 6.16667,373.5 0.5,373.5C 0.5,369.833 0.5,366.167 0.5,362.5C 1.04444,336.788 2.54444,311.122 5,285.5C 5.05445,254.47 5.72111,223.47 7,192.5C 8.29911,191.02 9.96578,190.354 12,190.5C 34.1861,191.112 56.3528,192.112 78.5,193.5C 79.3941,171.838 79.5607,150.171 79,128.5C 82.6667,124.833 86.3333,121.167 90,117.5C 110.615,89.6379 133.115,63.3046 157.5,38.5C 158.086,38.7093 158.586,39.0426 159,39.5C 159.918,78.959 158.585,118.292 155,157.5C 149.573,165.255 144.573,173.255 140,181.5C 136.643,185.356 133.476,189.356 130.5,193.5C 144.488,194.333 158.488,194.833 172.5,195C 185.363,207.529 197.863,220.362 210,233.5C 215.219,239.718 220.052,246.218 224.5,253C 234.433,251.032 244.433,249.032 254.5,247C 266.294,242.143 278.628,239.643 291.5,239.5C 291.93,228.236 289.764,217.569 285,207.5C 274.394,199.448 263.228,192.281 251.5,186C 246.167,180.667 240.833,175.333 235.5,170C 225.078,162.914 215.912,154.414 208,144.5C 205.274,140.621 203.774,136.288 203.5,131.5C 205.607,128.939 208.274,127.106 211.5,126C 226.773,121.172 242.439,119.172 258.5,120C 265.833,112.331 274.499,106.664 284.5,103C 322.28,95.6554 352.78,107.155 376,137.5C 388.754,160.017 402.754,181.684 418,202.5C 424.956,213.28 430.789,224.613 435.5,236.5C 446.718,240.649 458.051,244.482 469.5,248C 479.651,252.462 486.484,259.962 490,270.5C 491.193,278.018 492.693,285.351 494.5,292.5 Z"/></g>
<g><path style="opacity:1" fill="#f8f8f8" d="M 291.5,243.5 C 293.411,243.574 294.578,244.574 295,246.5C 295.667,253.167 295.667,259.833 295,266.5C 294.208,268.587 293.041,270.421 291.5,272C 269.82,272.569 248.154,273.403 226.5,274.5C 219.467,273.93 212.467,273.097 205.5,272C 203.336,271.086 201.336,269.919 199.5,268.5C 218.738,262.699 238.072,257.199 257.5,252C 267.709,249.358 278.043,247.358 288.5,246C 289.571,245.148 290.571,244.315 291.5,243.5 Z"/></g>
<g><path style="opacity:1" fill="#b0babd" d="M 81.5,249.5 C 83.1942,241.061 83.8609,232.395 83.5,223.5C 84.0625,193.503 84.5625,163.503 85,133.5C 106.387,108.382 127.053,82.7153 147,56.5C 149.016,54.316 151.183,52.316 153.5,50.5C 154.142,84.1871 153.309,117.854 151,151.5C 150.101,155.538 148.434,159.205 146,162.5C 130.492,185.517 114.492,208.184 98,230.5C 92.5,240.167 87,249.833 81.5,259.5C 81.1667,258.667 80.8333,257.833 80.5,257C 81.1595,254.538 81.4928,252.038 81.5,249.5 Z"/></g>
<g><path style="opacity:1" fill="#f8f8f8" d="M 260.5,171.5 C 264.846,171.334 269.179,171.501 273.5,172C 279.333,179.167 285.167,186.333 291,193.5C 298.333,206.833 305.667,220.167 313,233.5C 317.667,238.833 322.333,244.167 327,249.5C 327.667,251.167 327.667,252.833 327,254.5C 323.467,262.403 319.301,269.903 314.5,277C 309.037,277.754 303.704,277.254 298.5,275.5C 301.625,255.298 300.458,235.298 295,215.5C 293.368,209.07 289.868,203.903 284.5,200C 275.665,194.415 266.665,189.081 257.5,184C 253.2,180.702 249.2,177.035 245.5,173C 250.684,172.826 255.684,172.326 260.5,171.5 Z"/></g>
<g><path style="opacity:1" fill="#ab6130" d="M 239.5,163.5 C 242.647,163.737 245.647,164.57 248.5,166C 254.157,166.499 259.824,166.666 265.5,166.5C 259.681,167.653 253.681,167.819 247.5,167C 244.524,166.295 241.858,165.129 239.5,163.5 Z"/></g>
<g><path style="opacity:1" fill="#f78031" d="M 246.5,159.5 C 251.805,160.194 257.138,160.528 262.5,160.5C 265.272,160.595 267.272,161.929 268.5,164.5C 267.643,165.425 266.643,166.092 265.5,166.5C 259.824,166.666 254.157,166.499 248.5,166C 245.647,164.57 242.647,163.737 239.5,163.5C 238.064,162.571 236.731,161.405 235.5,160C 236.593,158.635 237.926,158.301 239.5,159C 237.405,159.556 237.238,160.056 239,160.5C 241.434,159.678 243.934,159.344 246.5,159.5 Z"/></g>
<g><path style="opacity:1" fill="#de7b3d" d="M 256.5,127.5 C 257.693,127.97 258.36,128.97 258.5,130.5C 259.209,137.671 260.709,144.671 263,151.5C 263.722,154.261 263.555,156.927 262.5,159.5C 257.532,158.836 252.532,158.336 247.5,158C 244.524,157.295 241.858,156.129 239.5,154.5C 246.714,156.575 254.047,156.909 261.5,155.5C 260.446,149.398 258.946,143.398 257,137.5C 256.667,139.833 256.333,142.167 256,144.5C 255.905,138.843 256.072,133.176 256.5,127.5 Z"/></g>
<g><path style="opacity:1" fill="#e97e3a" d="M 246.5,159.5 C 243.934,159.344 241.434,159.678 239,160.5C 237.238,160.056 237.405,159.556 239.5,159C 237.926,158.301 236.593,158.635 235.5,160C 236.731,161.405 238.064,162.571 239.5,163.5C 237.345,163.628 235.345,163.128 233.5,162C 225.702,156.369 218.702,149.869 212.5,142.5C 211.114,140.24 211.781,139.406 214.5,140C 223.62,149.338 234.287,155.838 246.5,159.5 Z"/></g>
<g><path style="opacity:1" fill="#3e1107" d="M 212.5,137.5 C 217.851,141.192 223.185,144.859 228.5,148.5C 231.4,151.786 235.067,153.786 239.5,154.5C 241.858,156.129 244.524,157.295 247.5,158C 252.532,158.336 257.532,158.836 262.5,159.5C 262.5,159.833 262.5,160.167 262.5,160.5C 257.138,160.528 251.805,160.194 246.5,159.5C 234.287,155.838 223.62,149.338 214.5,140C 211.781,139.406 211.114,140.24 212.5,142.5C 211.414,142.38 210.747,141.713 210.5,140.5C 210.942,139.261 211.609,138.261 212.5,137.5 Z"/></g>
<g><path style="opacity:1" fill="#d3d3d3" d="M 273.5,137.5 C 274.586,137.62 275.253,138.287 275.5,139.5C 274.696,141.957 273.696,141.957 272.5,139.5C 272.863,138.817 273.196,138.15 273.5,137.5 Z"/></g>
<g><path style="opacity:1" fill="#ee8037" d="M 218.5,127.5 C 219.833,127.5 221.167,127.5 222.5,127.5C 223.014,129.512 223.18,131.512 223,133.5C 221.657,132.786 220.324,133.12 219,134.5C 218.846,131.475 217.346,129.809 214.5,129.5C 214.859,131.766 214.192,133.599 212.5,135C 213.167,135.667 213.833,136.333 214.5,137C 217.507,137.301 220.507,137.135 223.5,136.5C 222.652,138.481 222.152,140.481 222,142.5C 222.667,143.167 223.333,143.833 224,144.5C 227.309,143.324 228.809,144.657 228.5,148.5C 223.185,144.859 217.851,141.192 212.5,137.5C 207.779,135.174 207.446,132.34 211.5,129C 213.74,128.023 216.073,127.523 218.5,127.5 Z"/></g>
<g><path style="opacity:1" fill="#f0f0f0" d="M 279.5,124.5 C 281.017,124.511 282.184,125.177 283,126.5C 283.212,137.208 280.545,147.208 275,156.5C 273.54,159.21 271.54,159.876 269,158.5C 268.468,155.736 267.634,153.07 266.5,150.5C 272.243,149.922 276.076,146.922 278,141.5C 278.773,131.306 274.606,128.806 265.5,134C 264.382,135.074 263.382,136.24 262.5,137.5C 262.167,137.167 261.833,136.833 261.5,136.5C 266.232,130.476 272.232,126.476 279.5,124.5 Z"/></g>
<g><path style="opacity:1" fill="#fc7e2b" d="M 251.5,124.5 C 253.674,124.75 255.341,125.75 256.5,127.5C 256.072,133.176 255.905,138.843 256,144.5C 256.333,142.167 256.667,139.833 257,137.5C 258.946,143.398 260.446,149.398 261.5,155.5C 254.047,156.909 246.714,156.575 239.5,154.5C 235.067,153.786 231.4,151.786 228.5,148.5C 228.809,144.657 227.309,143.324 224,144.5C 223.333,143.833 222.667,143.167 222,142.5C 222.152,140.481 222.652,138.481 223.5,136.5C 220.507,137.135 217.507,137.301 214.5,137C 213.833,136.333 213.167,135.667 212.5,135C 214.192,133.599 214.859,131.766 214.5,129.5C 217.346,129.809 218.846,131.475 219,134.5C 220.324,133.12 221.657,132.786 223,133.5C 223.18,131.512 223.014,129.512 222.5,127.5C 231.961,125.134 241.627,124.134 251.5,124.5 Z"/></g>
<g><path style="opacity:1" fill="#d0763f" d="M 251.5,124.5 C 241.627,124.134 231.961,125.134 222.5,127.5C 221.167,127.5 219.833,127.5 218.5,127.5C 229.26,123.671 240.26,122.671 251.5,124.5 Z"/></g>
<g><path style="opacity:1" fill="#131313" d="M 299.5,105.5 C 332.418,104.539 357.585,117.872 375,145.5C 384.327,164.157 395.661,181.491 409,197.5C 413.732,206.629 418.732,215.629 424,224.5C 439.839,261.528 451.172,299.861 458,339.5C 459.333,344.167 460.667,348.833 462,353.5C 463.103,370.587 462.437,387.587 460,404.5C 459.261,408.062 457.761,411.228 455.5,414C 442.212,417.874 428.879,421.541 415.5,425C 400.344,425.352 385.511,427.519 371,431.5C 355.26,413.614 348.26,392.614 350,368.5C 352.872,353.946 354.205,339.28 354,324.5C 353.108,321.716 351.942,319.05 350.5,316.5C 358.456,307.949 365.956,298.949 373,289.5C 379.663,278.843 386.33,268.176 393,257.5C 394.441,254.845 395.274,252.012 395.5,249C 395.691,247.027 395.024,245.527 393.5,244.5C 385.014,258.131 376.514,271.797 368,285.5C 363.288,290.543 358.955,295.877 355,301.5C 348.605,306.948 341.772,311.781 334.5,316C 315.074,315.516 296.741,310.85 279.5,302C 271.364,299.216 263.031,297.216 254.5,296C 235.987,294.177 217.487,293.011 199,292.5C 194.606,293.842 190.106,294.342 185.5,294C 189.914,291.461 194.581,289.461 199.5,288C 206.448,287.213 213.115,285.547 219.5,283C 244.676,278.246 270.009,277.246 295.5,280C 303.969,281.427 312.302,283.094 320.5,285C 323.59,277.319 327.09,269.819 331,262.5C 334.262,255.048 336.929,247.381 339,239.5C 339.667,234.833 339.667,230.167 339,225.5C 337.989,224.663 336.822,224.33 335.5,224.5C 334.982,231.219 333.149,237.552 330,243.5C 325.632,239.467 321.632,235.134 318,230.5C 310.575,217.317 303.408,203.983 296.5,190.5C 289.872,183.703 283.372,176.703 277,169.5C 276.333,168.167 276.333,166.833 277,165.5C 279.503,162.498 281.503,159.165 283,155.5C 285.819,147.225 288.486,138.892 291,130.5C 290.286,116.834 283.786,113.334 271.5,120C 268.667,122.833 265.833,125.667 263,128.5C 262.833,128 262.667,127.5 262.5,127C 263.353,124.867 263.686,122.867 263.5,121C 269.322,117.923 274.989,114.589 280.5,111C 286.978,109.303 293.312,107.47 299.5,105.5 Z"/></g>
<g><path style="opacity:1" fill="#0b0d12" d="M 148.5,61.5 C 150.495,92.4848 149.328,123.485 145,154.5C 129.274,177.228 113.941,200.228 99,223.5C 95,228.167 91,232.833 87,237.5C 88.1194,203.197 88.7861,168.864 89,134.5C 109.424,110.583 129.258,86.2496 148.5,61.5 Z"/></g>
<g><path style="opacity:1" fill="#181c5d" d="M 107.5,183.5 C 108.627,195.908 104.294,205.908 94.5,213.5C 94.5,208.167 94.5,202.833 94.5,197.5C 97.7164,191.942 101.716,186.942 106.5,182.5C 107.107,182.624 107.44,182.957 107.5,183.5 Z"/></g>
<g><path style="opacity:1" fill="#181c5f" d="M 126.5,158.5 C 126.182,163.032 126.515,167.366 127.5,171.5C 123.983,177.881 119.983,183.881 115.5,189.5C 114.502,189.413 113.335,189.08 112,188.5C 111.333,184.5 111.333,180.5 112,176.5C 114.919,170.323 118.586,164.656 123,159.5C 124.011,158.663 125.178,158.33 126.5,158.5 Z"/></g>
<g><path style="opacity:1" fill="#546fba" d="M 127.5,144.5 C 127.586,146.677 128.253,148.677 129.5,150.5C 128.484,153.282 127.484,155.949 126.5,158.5C 125.178,158.33 124.011,158.663 123,159.5C 118.586,164.656 114.919,170.323 112,176.5C 111.333,180.5 111.333,184.5 112,188.5C 113.335,189.08 114.502,189.413 115.5,189.5C 109.343,200.669 102.343,211.336 94.5,221.5C 93.8333,222.833 93.1667,222.833 92.5,221.5C 93.0796,218.689 93.7463,216.023 94.5,213.5C 104.294,205.908 108.627,195.908 107.5,183.5C 108.117,183.611 108.617,183.944 109,184.5C 110.019,182.731 110.186,181.064 109.5,179.5C 111.58,173.596 113.247,167.596 114.5,161.5C 116.949,156.366 118.116,157.032 118,163.5C 118.333,163.167 118.667,162.833 119,162.5C 120.153,159.289 120.82,155.956 121,152.5C 123.031,149.645 125.197,146.978 127.5,144.5 Z"/></g>
<g><path style="opacity:1" fill="#1b2266" d="M 127.5,144.5 C 125.197,146.978 123.031,149.645 121,152.5C 120.82,155.956 120.153,159.289 119,162.5C 118.667,162.833 118.333,163.167 118,163.5C 118.116,157.032 116.949,156.366 114.5,161.5C 109.864,166.979 105.364,172.646 101,178.5C 99.8468,181.711 99.1802,185.044 99,188.5C 98.3333,189.167 97.6667,189.833 97,190.5C 96.3333,186.5 96.3333,182.5 97,178.5C 103.667,169.833 110.333,161.167 117,152.5C 117.259,149.413 117.759,146.413 118.5,143.5C 119.117,143.389 119.617,143.056 120,142.5C 120.333,144.167 120.667,145.833 121,147.5C 125.51,141.137 130.01,134.804 134.5,128.5C 135.983,126.906 137.483,125.24 139,123.5C 139.667,127.5 139.667,131.5 139,135.5C 138.667,135.833 138.333,136.167 138,136.5C 137.798,134.744 137.298,133.078 136.5,131.5C 133.085,135.576 130.085,139.909 127.5,144.5 Z"/></g>
<g><path style="opacity:1" fill="#7b8fc9" d="M 106.5,130.5 C 106.169,138.196 106.503,145.862 107.5,153.5C 110.871,150.129 113.871,146.463 116.5,142.5C 117.492,142.328 118.158,142.662 118.5,143.5C 117.759,146.413 117.259,149.413 117,152.5C 110.333,161.167 103.667,169.833 97,178.5C 96.3333,182.5 96.3333,186.5 97,190.5C 97.6667,189.833 98.3333,189.167 99,188.5C 99.1802,185.044 99.8468,181.711 101,178.5C 105.364,172.646 109.864,166.979 114.5,161.5C 113.247,167.596 111.58,173.596 109.5,179.5C 110.186,181.064 110.019,182.731 109,184.5C 108.617,183.944 108.117,183.611 107.5,183.5C 107.44,182.957 107.107,182.624 106.5,182.5C 101.716,186.942 97.7164,191.942 94.5,197.5C 94.5,195.5 94.5,193.5 94.5,191.5C 95.3276,185.681 95.8276,179.681 96,173.5C 98,172.833 99.3333,171.5 100,169.5C 101.001,163.817 102.668,158.483 105,153.5C 105.171,145.656 105.671,137.989 106.5,130.5 Z"/></g>
<g><path style="opacity:1" fill="#131959" d="M 143.5,133.5 C 143.666,139.176 143.499,144.843 143,150.5C 139.478,155.566 135.978,160.566 132.5,165.5C 129.561,157.907 130.394,150.573 135,143.5C 137.698,139.975 140.531,136.642 143.5,133.5 Z"/></g>
<g><path style="opacity:1" fill="#d1d9e8" d="M 104.5,125.5 C 105.097,125.735 105.43,126.235 105.5,127C 102.311,138.068 98.6444,148.901 94.5,159.5C 94.3336,151.826 94.5003,144.159 95,136.5C 98.0316,132.641 101.198,128.974 104.5,125.5 Z"/></g>
<g><path style="opacity:1" fill="#afbcdd" d="M 125.5,100.5 C 123.886,103.393 122.553,106.393 121.5,109.5C 116.112,116.222 111.112,123.222 106.5,130.5C 105.671,137.989 105.171,145.656 105,153.5C 102.668,158.483 101.001,163.817 100,169.5C 99.3333,171.5 98,172.833 96,173.5C 95.8276,179.681 95.3276,185.681 94.5,191.5C 94.5,180.833 94.5,170.167 94.5,159.5C 98.6444,148.901 102.311,138.068 105.5,127C 105.43,126.235 105.097,125.735 104.5,125.5C 111.154,116.849 118.154,108.516 125.5,100.5 Z"/></g>
<g><path style="opacity:1" fill="#1b2260" d="M 131.5,98.5 C 131.91,107.25 131.41,115.916 130,124.5C 125.734,130.709 121.234,136.709 116.5,142.5C 113.871,146.463 110.871,150.129 107.5,153.5C 106.503,145.862 106.169,138.196 106.5,130.5C 111.112,123.222 116.112,116.222 121.5,109.5C 124.223,106.414 126.723,103.08 129,99.5C 129.671,98.7476 130.504,98.4142 131.5,98.5 Z"/></g>
<g><path style="opacity:1" fill="#4162b8" d="M 143.5,96.5 C 143.5,108.5 143.5,120.5 143.5,132.5C 143.5,132.833 143.5,133.167 143.5,133.5C 140.531,136.642 137.698,139.975 135,143.5C 130.394,150.573 129.561,157.907 132.5,165.5C 130.844,167.46 129.177,169.46 127.5,171.5C 126.515,167.366 126.182,163.032 126.5,158.5C 127.484,155.949 128.484,153.282 129.5,150.5C 128.253,148.677 127.586,146.677 127.5,144.5C 130.085,139.909 133.085,135.576 136.5,131.5C 137.298,133.078 137.798,134.744 138,136.5C 138.333,136.167 138.667,135.833 139,135.5C 139.667,131.5 139.667,127.5 139,123.5C 137.483,125.24 135.983,126.906 134.5,128.5C 134.178,126.278 134.845,124.444 136.5,123C 135.701,119.223 135.868,115.39 137,111.5C 139.863,106.726 142.03,101.726 143.5,96.5 Z"/></g>
<g><path style="opacity:1" fill="#5673c0" d="M 140.5,82.5 C 141.5,82.5 142.5,82.5 143.5,82.5C 143.5,87.1667 143.5,91.8333 143.5,96.5C 142.03,101.726 139.863,106.726 137,111.5C 135.868,115.39 135.701,119.223 136.5,123C 134.845,124.444 134.178,126.278 134.5,128.5C 130.01,134.804 125.51,141.137 121,147.5C 120.667,145.833 120.333,144.167 120,142.5C 119.617,143.056 119.117,143.389 118.5,143.5C 118.158,142.662 117.492,142.328 116.5,142.5C 121.234,136.709 125.734,130.709 130,124.5C 131.41,115.916 131.91,107.25 131.5,98.5C 132.323,101.977 132.823,105.644 133,109.5C 133.844,105.789 134.844,102.123 136,98.5C 136.961,96.3759 138.128,95.2093 139.5,95C 138.99,93.1739 138.156,93.0072 137,94.5C 136.436,92.4382 136.936,90.6049 138.5,89C 137.763,86.5835 138.43,84.4169 140.5,82.5 Z"/></g>
<g><path style="opacity:1" fill="#4f649c" d="M 143.5,132.5 C 143.5,120.5 143.5,108.5 143.5,96.5C 143.5,91.8333 143.5,87.1667 143.5,82.5C 142.5,82.5 141.5,82.5 140.5,82.5C 141.398,80.0948 142.898,78.0948 145,76.5C 144.87,95.2844 144.37,113.951 143.5,132.5 Z"/></g>
<g><path style="opacity:1" fill="#7886c2" d="M 126.5,106.5 C 127.5,106.5 128.5,106.5 129.5,106.5C 129.839,111.93 129.339,117.264 128,122.5C 122.769,131.066 116.769,139.066 110,146.5C 108.089,140.921 108.089,135.255 110,129.5C 115.509,121.804 121.009,114.137 126.5,106.5 Z"/></g>
<g><path style="opacity:1" fill="#1f2b6a" d="M 126.5,119.5 C 127.465,120.721 127.298,122.054 126,123.5C 121.333,129.5 116.667,135.5 112,141.5C 111.685,140.092 112.018,138.759 113,137.5C 117.752,131.649 122.252,125.649 126.5,119.5 Z"/></g>
<g><path style="opacity:1" fill="#202c69" d="M 125.5,115.5 C 127.028,115.517 127.528,116.184 127,117.5C 122,123.833 117,130.167 112,136.5C 111.333,135.833 111.333,135.167 112,134.5C 117.01,128.46 121.51,122.126 125.5,115.5 Z"/></g>
<g><path style="opacity:1" fill="#202762" d="M 126.5,109.5 C 127.573,110.251 127.74,111.251 127,112.5C 122,118.833 117,125.167 112,131.5C 111.685,130.092 112.018,128.759 113,127.5C 117.717,121.623 122.217,115.623 126.5,109.5 Z"/></g>
<g><path style="opacity:1" fill="#7289c7" d="M 140.5,82.5 C 138.43,84.4169 137.763,86.5835 138.5,89C 136.936,90.6049 136.436,92.4382 137,94.5C 138.156,93.0072 138.99,93.1739 139.5,95C 138.128,95.2093 136.961,96.3759 136,98.5C 134.844,102.123 133.844,105.789 133,109.5C 132.823,105.644 132.323,101.977 131.5,98.5C 130.504,98.4142 129.671,98.7476 129,99.5C 126.723,103.08 124.223,106.414 121.5,109.5C 122.553,106.393 123.886,103.393 125.5,100.5C 129.09,95.0636 132.923,89.7302 137,84.5C 137.816,83.1772 138.983,82.5106 140.5,82.5 Z"/></g>
<g><path style="opacity:1" fill="#5e8bd0" d="M 437.5,242.5 C 440.187,242.336 442.854,242.503 445.5,243C 453.103,246.151 460.77,249.151 468.5,252C 481.807,262.112 488.64,275.612 489,292.5C 489.551,304.559 488.884,316.559 487,328.5C 483.146,334.406 477.979,335.906 471.5,333C 468.236,331.881 465.569,330.048 463.5,327.5C 459.68,313.184 455.846,298.85 452,284.5C 447.848,270.207 443.014,256.207 437.5,242.5 Z"/></g>
<g><path style="opacity:1" fill="#bcb9ad" d="M 176.5,237.5 C 185.714,238.258 194.714,240.091 203.5,243C 204.667,244.167 205.833,245.333 207,246.5C 207.828,251.202 207.662,255.869 206.5,260.5C 199.301,262.268 191.968,263.268 184.5,263.5C 184.297,265.39 184.963,266.89 186.5,268C 191.705,271.184 197.039,274.184 202.5,277C 203.517,278.049 203.684,279.216 203,280.5C 192.075,283.297 182.075,287.964 173,294.5C 172.333,295.5 172.333,296.5 173,297.5C 174.945,298.863 177.112,299.697 179.5,300C 186.492,300.5 193.492,300.666 200.5,300.5C 199.72,306.342 198.22,312.009 196,317.5C 192.478,324.013 186.978,327.013 179.5,326.5C 171.635,325.45 163.969,323.617 156.5,321C 154.413,320.208 152.579,319.041 151,317.5C 154.868,289.362 163.368,262.695 176.5,237.5 Z"/></g>
<g><path style="opacity:1" fill="#eee9b7" d="M 208.5,277.5 C 211.898,277.18 215.232,277.513 218.5,278.5C 214.869,280.055 211.203,280.388 207.5,279.5C 207.863,278.817 208.196,278.15 208.5,277.5 Z"/></g>
<g><path style="opacity:1" fill="#fbe7c7" d="M 12.5,196.5 C 33.9392,195.902 55.2725,196.902 76.5,199.5C 76.9664,223.503 77.2998,247.503 77.5,271.5C 85.3316,260.507 92.665,249.174 99.5,237.5C 100.614,238.723 100.781,240.056 100,241.5C 97.5465,244.575 96.0465,248.075 95.5,252C 95.7378,255.071 97.4044,256.571 100.5,256.5C 103.028,256.237 105.361,255.404 107.5,254C 115.328,246.502 121.161,237.668 125,227.5C 125.973,221.565 123.473,219.065 117.5,220C 114.833,221.333 112.833,223.333 111.5,226C 110.668,226.688 110.002,226.521 109.5,225.5C 114.582,216.92 120.249,208.753 126.5,201C 141.165,200.16 155.831,199.827 170.5,200C 184.7,214.532 198.534,229.365 212,244.5C 213.777,247.72 215.277,251.053 216.5,254.5C 215.927,257.085 214.261,258.085 211.5,257.5C 212.934,249.874 210.601,243.708 204.5,239C 194.465,233.805 183.965,232.305 173,234.5C 159.61,259.569 150.444,286.069 145.5,314C 146.386,321.553 150.719,325.886 158.5,327C 168.644,330.03 178.977,331.03 189.5,330C 192.872,329.438 195.705,327.938 198,325.5C 201.409,319.607 203.409,313.274 204,306.5C 204.792,304.413 205.959,302.579 207.5,301C 222.186,300.345 236.853,300.679 251.5,302C 255.084,303.292 258.751,304.292 262.5,305C 277.838,320.33 291.672,336.83 304,354.5C 310,361.167 316,367.833 322,374.5C 322.667,375.167 322.667,375.833 322,376.5C 319.26,377.282 316.426,377.782 313.5,378C 285.411,379.212 257.411,378.212 229.5,375C 218.661,374.485 207.828,374.652 197,375.5C 169.857,373.454 142.691,371.954 115.5,371C 111.157,369.99 107.99,367.49 106,363.5C 79.6355,317.441 54.3021,270.774 30,223.5C 24.1457,214.443 18.3123,205.443 12.5,196.5 Z"/></g>
<g><path style="opacity:1" fill="#619bf4" d="M 138.5,273.5 C 141.679,274.793 145.012,275.46 148.5,275.5C 147.789,283.421 144.123,289.588 137.5,294C 130.982,299.008 123.649,302.174 115.5,303.5C 110.167,303.833 104.833,304.167 99.5,304.5C 98.5,304.5 97.5,304.5 96.5,304.5C 99.9988,302.25 103.665,300.25 107.5,298.5C 120.669,297.965 130.836,292.299 138,281.5C 138.497,278.854 138.664,276.187 138.5,273.5 Z"/></g>
<g><path style="opacity:1" fill="#bacbde" d="M 138.5,273.5 C 138.664,276.187 138.497,278.854 138,281.5C 130.836,292.299 120.669,297.965 107.5,298.5C 109.195,294.801 108.195,291.967 104.5,290C 105.409,287.681 107.075,287.014 109.5,288C 110.594,289.78 111.594,291.614 112.5,293.5C 113.84,292.312 114.507,290.812 114.5,289C 113.077,280.563 113.91,280.397 117,288.5C 118,289.833 119,289.833 120,288.5C 120.456,285.428 120.456,282.428 120,279.5C 121.117,280.949 121.784,282.616 122,284.5C 123.011,285.337 124.178,285.67 125.5,285.5C 125.335,282.15 125.502,278.817 126,275.5C 127.073,277.547 128.239,279.547 129.5,281.5C 130.318,278.893 130.818,276.226 131,273.5C 131.941,275.061 133.108,276.395 134.5,277.5C 135.167,274.833 135.833,272.167 136.5,269.5C 137.705,270.577 138.372,271.91 138.5,273.5 Z"/></g>
<g><path style="opacity:1" fill="#c2cddc" d="M 101.5,275.5 C 102.259,277.436 103.259,279.269 104.5,281C 103.937,283.251 102.603,284.251 100.5,284C 98.6997,282.188 97.0331,280.355 95.5,278.5C 97.0301,276.654 99.0301,275.654 101.5,275.5 Z"/></g>
<g><path style="opacity:1" fill="#b4c3de" d="M 108.5,271.5 C 109.411,273.951 110.244,276.285 111,278.5C 109.143,275.8 106.643,274.134 103.5,273.5C 104.78,272.069 106.447,271.402 108.5,271.5 Z"/></g>
<g><path style="opacity:1" fill="#c0cee4" d="M 116.5,269.5 C 117.818,273.692 116.818,274.359 113.5,271.5C 113.389,270.883 113.056,270.383 112.5,270C 113.793,269.51 115.127,269.343 116.5,269.5 Z"/></g>
<g><path style="opacity:1" fill="#619bf2" d="M 132.5,261.5 C 132.33,262.822 132.663,263.989 133.5,265C 131.893,264.981 130.226,264.815 128.5,264.5C 128.97,268.97 127.97,269.47 125.5,266C 124.207,265.51 122.873,265.343 121.5,265.5C 121.33,266.822 121.663,267.989 122.5,269C 121.906,269.464 121.239,269.631 120.5,269.5C 118.998,266.978 117.665,266.978 116.5,269.5C 115.127,269.343 113.793,269.51 112.5,270C 113.056,270.383 113.389,270.883 113.5,271.5C 113.167,271.5 112.833,271.5 112.5,271.5C 111.609,270.89 110.609,270.557 109.5,270.5C 108.833,270.5 108.5,270.833 108.5,271.5C 106.447,271.402 104.78,272.069 103.5,273.5C 102.167,273.5 101.5,274.167 101.5,275.5C 99.0301,275.654 97.0301,276.654 95.5,278.5C 93.2843,279.203 91.451,280.536 90,282.5C 86.4166,287.651 84.5833,293.318 84.5,299.5C 80.8182,296.629 79.1516,292.795 79.5,288C 80.6618,281.681 83.6618,276.347 88.5,272C 98.8831,264.699 110.383,260.865 123,260.5C 126.251,260.542 129.417,260.875 132.5,261.5 Z"/></g>
<g><path style="opacity:1" fill="#1a1a22" d="M 148.5,275.5 C 145.012,275.46 141.679,274.793 138.5,273.5C 138.372,271.91 137.705,270.577 136.5,269.5C 135.833,272.167 135.167,274.833 134.5,277.5C 133.108,276.395 131.941,275.061 131,273.5C 130.818,276.226 130.318,278.893 129.5,281.5C 128.239,279.547 127.073,277.547 126,275.5C 125.502,278.817 125.335,282.15 125.5,285.5C 124.178,285.67 123.011,285.337 122,284.5C 121.784,282.616 121.117,280.949 120,279.5C 120.456,282.428 120.456,285.428 120,288.5C 119,289.833 118,289.833 117,288.5C 113.91,280.397 113.077,280.563 114.5,289C 114.507,290.812 113.84,292.312 112.5,293.5C 111.594,291.614 110.594,289.78 109.5,288C 107.075,287.014 105.409,287.681 104.5,290C 108.195,291.967 109.195,294.801 107.5,298.5C 103.665,300.25 99.9988,302.25 96.5,304.5C 93.2109,305.548 89.8776,306.048 86.5,306C 84.771,304.211 84.1043,302.044 84.5,299.5C 84.5833,293.318 86.4166,287.651 90,282.5C 91.451,280.536 93.2843,279.203 95.5,278.5C 97.0331,280.355 98.6997,282.188 100.5,284C 102.603,284.251 103.937,283.251 104.5,281C 103.259,279.269 102.259,277.436 101.5,275.5C 101.5,274.167 102.167,273.5 103.5,273.5C 106.643,274.134 109.143,275.8 111,278.5C 110.244,276.285 109.411,273.951 108.5,271.5C 108.5,270.833 108.833,270.5 109.5,270.5C 111.406,275.315 114.073,279.649 117.5,283.5C 118.614,282.277 118.781,280.944 118,279.5C 116.727,276.403 114.893,273.736 112.5,271.5C 112.833,271.5 113.167,271.5 113.5,271.5C 116.818,274.359 117.818,273.692 116.5,269.5C 117.665,266.978 118.998,266.978 120.5,269.5C 121.239,269.631 121.906,269.464 122.5,269C 121.663,267.989 121.33,266.822 121.5,265.5C 122.873,265.343 124.207,265.51 125.5,266C 127.97,269.47 128.97,268.97 128.5,264.5C 130.226,264.815 131.893,264.981 133.5,265C 132.663,263.989 132.33,262.822 132.5,261.5C 133.927,258.976 135.094,256.31 136,253.5C 136.72,251.745 137.887,250.911 139.5,251C 141.639,259.091 145.472,266.257 151,272.5C 151.483,273.448 151.649,274.448 151.5,275.5C 150.5,275.5 149.5,275.5 148.5,275.5 Z"/></g>
<g><path style="opacity:1" fill="#c0b8c4" d="M 105.5,283.5 C 107.337,283.639 107.67,284.306 106.5,285.5C 105.702,285.043 105.369,284.376 105.5,283.5 Z"/></g>
<g><path style="opacity:1" fill="#cfcbdc" d="M 93.5,280.5 C 95.0174,280.511 96.1841,281.177 97,282.5C 99.9734,286.974 103.14,291.307 106.5,295.5C 103.007,299.419 98.6739,302.085 93.5,303.5C 92.479,302.998 92.3123,302.332 93,301.5C 94.4194,300.54 95.9194,299.707 97.5,299C 98.4506,298.282 98.6172,297.449 98,296.5C 94.4792,299.209 90.6459,301.209 86.5,302.5C 85.4059,294.034 87.7392,286.701 93.5,280.5 Z"/></g>
<g><path style="opacity:1" fill="#0b0710" d="M 90.5,290.5 C 91.8333,290.5 93.1667,290.5 94.5,290.5C 94.5,291.833 94.5,293.167 94.5,294.5C 91.858,294.512 90.5246,293.179 90.5,290.5 Z"/></g>
<g><path style="opacity:1" fill="#c5c3d0" d="M 102.5,274.5 C 107.09,275.921 110.256,278.921 112,283.5C 112.667,285.167 112.667,286.833 112,288.5C 108.586,283.934 105.42,279.268 102.5,274.5 Z"/></g>
<g><path style="opacity:1" fill="#cac8d5" d="M 120.5,269.5 C 123.379,273.346 124.545,277.679 124,282.5C 121.501,279.002 119.668,275.168 118.5,271C 118.836,269.97 119.503,269.47 120.5,269.5 Z"/></g>
<g><path style="opacity:1" fill="#c7c4d1" d="M 109.5,270.5 C 110.609,270.557 111.609,270.89 112.5,271.5C 114.893,273.736 116.727,276.403 118,279.5C 118.781,280.944 118.614,282.277 117.5,283.5C 114.073,279.649 111.406,275.315 109.5,270.5 Z"/></g>
<g><path style="opacity:1" fill="#b8b5c2" d="M 141.5,266.5 C 143.942,266.354 144.609,267.187 143.5,269C 146.901,268.734 148.567,270.234 148.5,273.5C 145.833,273.5 143.167,273.5 140.5,273.5C 141.313,271.113 141.646,268.78 141.5,266.5 Z"/></g>
<g><path style="opacity:1" fill="#c6c4d0" d="M 124.5,268.5 C 127.754,269.673 128.92,272.006 128,275.5C 126.121,273.473 124.954,271.14 124.5,268.5 Z"/></g>
<g><path style="opacity:1" fill="#b5b1be" d="M 130.5,266.5 C 131.496,266.414 132.329,266.748 133,267.5C 133.346,269.218 133.846,270.885 134.5,272.5C 134.167,272.833 133.833,273.167 133.5,273.5C 131.918,271.423 130.918,269.09 130.5,266.5 Z"/></g>
<g><path style="opacity:1" fill="#c6c4d2" d="M 141.5,266.5 C 137.898,266.322 137.898,265.322 141.5,263.5C 142.562,264.425 142.562,265.425 141.5,266.5 Z"/></g>
<g><path style="opacity:1" fill="#c4c2cc" d="M 139.5,259.5 C 140.376,259.369 141.043,259.702 141.5,260.5C 140.379,263.047 138.712,264.047 136.5,263.5C 137.524,262.148 138.524,260.815 139.5,259.5 Z"/></g>
<g><path style="opacity:1" fill="#d3d1dd" d="M 137.5,253.5 C 139.377,254.659 139.877,256.326 139,258.5C 137.667,259.833 136.333,261.167 135,262.5C 135.696,259.562 136.53,256.562 137.5,253.5 Z"/></g>
<g><path style="opacity:1" fill="#868e90" d="M 83.5,223.5 C 83.8609,232.395 83.1942,241.061 81.5,249.5C 81.7591,240.653 82.4258,231.986 83.5,223.5 Z"/></g>
<g><path style="opacity:1" fill="#9bb4de" d="M 115.5,303.5 C 110.221,305.311 104.888,305.644 99.5,304.5C 104.833,304.167 110.167,303.833 115.5,303.5 Z"/></g>
<g><path style="opacity:1" fill="#e3e4e4" d="M 269.5,306.5 C 272.727,307.744 276.061,308.91 279.5,310C 280.591,312.064 280.758,314.231 280,316.5C 279.282,317.451 278.449,317.617 277.5,317C 275.329,313.012 272.662,309.512 269.5,306.5 Z"/></g>
<g><path style="opacity:1" fill="#fafafa" d="M 348.5,338.5 C 347.291,342.618 346.624,346.951 346.5,351.5C 341.052,375.489 343.886,398.489 355,420.5C 356.841,424.183 359.174,427.516 362,430.5C 362.49,431.793 362.657,433.127 362.5,434.5C 360.801,434.38 359.135,434.046 357.5,433.5C 349.354,436.024 341.021,437.358 332.5,437.5C 335.332,418.867 335.832,400.2 334,381.5C 332.92,379.004 331.586,376.67 330,374.5C 313.804,357.725 298.804,340.059 285,321.5C 284.333,319.167 284.333,316.833 285,314.5C 285.388,313.572 286.055,312.905 287,312.5C 302.977,318.695 319.477,322.195 336.5,323C 338.792,321.71 340.792,320.043 342.5,318C 345.217,316.967 347.051,317.8 348,320.5C 348.499,326.491 348.666,332.491 348.5,338.5 Z"/></g>
<g><path style="opacity:1" fill="#565656" d="M 348.5,338.5 C 348.844,343.122 348.177,347.455 346.5,351.5C 346.624,346.951 347.291,342.618 348.5,338.5 Z"/></g>
<g><path style="opacity:1" fill="#92a3a8" d="M 465.5,409.5 C 469.946,410.306 473.779,412.306 477,415.5C 477.667,416.833 477.667,418.167 477,419.5C 471.446,425.529 464.613,429.362 456.5,431C 431.955,435.727 407.288,439.727 382.5,443C 378.167,443.667 373.833,443.667 369.5,443C 367.003,442.588 365.003,441.422 363.5,439.5C 366.43,437.101 369.763,435.268 373.5,434C 396.323,434.355 418.323,430.355 439.5,422C 445.737,420.191 452.07,418.857 458.5,418C 461.656,415.86 463.99,413.026 465.5,409.5 Z"/></g>
<g><path style="opacity:1" fill="#5f83ba" d="M 480.5,421.5 C 481.497,421.47 482.164,421.97 482.5,423C 478.669,429.768 473.002,434.434 465.5,437C 460.757,438.47 456.091,440.136 451.5,442C 430.849,445.165 410.182,448.165 389.5,451C 381.167,451.667 372.833,451.667 364.5,451C 361.37,448.872 358.537,446.372 356,443.5C 355.51,442.207 355.343,440.873 355.5,439.5C 356.873,439.343 358.207,439.51 359.5,440C 361.833,442.333 364.167,444.667 366.5,447C 369.667,447.167 372.833,447.333 376,447.5C 398.502,445.095 421.002,442.595 443.5,440C 453.768,437.911 463.434,434.244 472.5,429C 475.666,427 478.332,424.5 480.5,421.5 Z"/></g>
<g><path style="opacity:1" fill="#a2c8d3" d="M 328.5,442.5 C 327.054,448.274 326.388,454.274 326.5,460.5C 326.667,483.836 326.5,507.169 326,530.5C 323.559,550.766 321.893,571.1 321,591.5C 320.248,595.403 318.081,596.403 314.5,594.5C 313.334,580.512 313.167,566.512 314,552.5C 315.286,540.193 316.119,527.859 316.5,515.5C 317.94,505.367 318.607,495.034 318.5,484.5C 320.948,452.812 320.948,421.312 318.5,390C 253.531,387.085 188.531,385.751 123.5,386C 123,386.5 122.5,387 122,387.5C 119.883,405.765 119.049,424.098 119.5,442.5C 118.449,451.321 117.783,460.321 117.5,469.5C 116.072,507.538 114.238,545.538 112,583.5C 109.478,586.326 107.478,585.993 106,582.5C 104.972,579.09 104.472,575.59 104.5,572C 106.701,509.519 107.868,447.019 108,384.5C 98.3722,375.245 90.7055,364.578 85,352.5C 63.6027,308.038 41.4361,264.038 18.5,220.5C 18.44,219.957 18.1067,219.624 17.5,219.5C 16.5027,226.803 16.1694,234.137 16.5,241.5C 15.0571,283.846 13.5571,326.179 12,368.5C 10.2739,369.576 8.44058,369.743 6.5,369C 5.85283,365.751 5.51949,362.418 5.5,359C 8.87438,307.48 11.0411,255.98 12,204.5C 18.6667,215.167 25.3333,225.833 32,236.5C 41.4576,258.91 52.791,280.243 66,300.5C 74.4897,318.148 83.4897,335.481 93,352.5C 98.3982,361.234 104.565,369.4 111.5,377C 150.502,377.552 189.502,378.219 228.5,379C 261.705,382.94 295.038,384.607 328.5,384C 329.809,389.59 330.475,395.423 330.5,401.5C 330.11,415.184 329.443,428.85 328.5,442.5 Z"/></g>
<g><path style="opacity:1" fill="#e57b38" d="M 268.5,441.5 C 267.518,439.594 266.518,437.594 265.5,435.5C 263.914,437.173 263.247,439.173 263.5,441.5C 259.205,441.279 258.538,442.612 261.5,445.5C 261.167,445.833 260.833,446.167 260.5,446.5C 259.751,444.988 258.584,443.988 257,443.5C 254.846,444.274 252.679,444.941 250.5,445.5C 254.511,442.399 258.678,439.399 263,436.5C 266.208,427.042 269.708,417.709 273.5,408.5C 275.698,407.933 278.031,407.933 280.5,408.5C 280.657,409.873 280.49,411.207 280,412.5C 272.912,420.941 269.079,430.607 268.5,441.5 Z"/></g>
<g><path style="opacity:1" fill="#f9f9f8" d="M 299.5,441.5 C 296.826,447.788 293.992,454.121 291,460.5C 285.283,467.216 279.95,474.216 275,481.5C 275.369,474.696 275.869,467.862 276.5,461C 274.634,450.575 273.801,440.075 274,429.5C 276.926,423.974 280.093,418.641 283.5,413.5C 288.136,411.848 292.969,410.515 298,409.5C 298.772,409.645 299.439,409.978 300,410.5C 300.61,417.158 301.11,423.825 301.5,430.5C 301.702,434.393 301.035,438.06 299.5,441.5 Z"/></g>
<g><path style="opacity:1" fill="#f2f2f1" d="M 311.5,402.5 C 313.167,402.5 314.833,402.5 316.5,402.5C 316.886,413.906 316.219,425.24 314.5,436.5C 306.53,432.187 302.53,425.353 302.5,416C 303.155,409.835 306.155,405.335 311.5,402.5 Z"/></g>
<g><path style="opacity:1" fill="#f4f5f4" d="M 272.5,391.5 C 286.592,392.005 300.592,393.339 314.5,395.5C 302.971,406.717 289.638,409.551 274.5,404C 270.686,400.14 270.02,395.974 272.5,391.5 Z"/></g>
<g><path style="opacity:1" fill="#757571" d="M 22.5,237.5 C 21.8333,239.5 21.1667,241.5 20.5,243.5C 20.1924,241.076 20.5258,238.743 21.5,236.5C 22.1067,236.624 22.44,236.957 22.5,237.5 Z"/></g>
<g><path style="opacity:1" fill="#52646b" d="M 18.5,220.5 C 17.8333,227.5 17.1667,234.5 16.5,241.5C 16.1694,234.137 16.5027,226.803 17.5,219.5C 18.1067,219.624 18.44,219.957 18.5,220.5 Z"/></g>
<g><path style="opacity:1" fill="#191919" d="M 410.5,452.5 C 412.833,452.5 415.167,452.5 417.5,452.5C 417.333,465.171 417.5,477.838 418,490.5C 418.484,495.986 421.317,497.819 426.5,496C 437.629,491.132 448.629,491.466 459.5,497C 461.037,498.11 461.703,499.61 461.5,501.5C 455.992,501.165 450.659,499.998 445.5,498C 442.167,497.333 438.833,497.333 435.5,498C 430.477,501.178 425.143,503.845 419.5,506C 417.951,507.214 416.785,508.714 416,510.5C 413.79,519.888 411.457,529.221 409,538.5C 406.279,541.314 403.779,541.148 401.5,538C 403.59,530.396 406.09,522.896 409,515.5C 410.213,512.232 410.546,508.899 410,505.5C 403.542,502.178 396.708,501.011 389.5,502C 385.75,504.207 381.75,505.873 377.5,507C 375.098,507.814 372.765,507.647 370.5,506.5C 373.166,502.33 376.832,499.497 381.5,498C 391.015,496.3 400.515,494.8 410,493.5C 410.438,479.688 410.604,466.021 410.5,452.5 Z"/></g>
<g><path style="opacity:1" fill="#828281" d="M 397.5,455.5 C 392.599,457.052 387.432,457.719 382,457.5C 377.985,457.499 374.151,457.165 370.5,456.5C 379.528,456.68 388.528,456.347 397.5,455.5 Z"/></g>
<g><path style="opacity:1" fill="#4d6266" d="M 328.5,442.5 C 328.477,448.712 327.81,454.712 326.5,460.5C 326.388,454.274 327.054,448.274 328.5,442.5 Z"/></g>
<g><path style="opacity:1" fill="#c97038" d="M 269.5,443.5 C 270.29,444.609 270.79,445.942 271,447.5C 271.984,458.591 271.484,469.591 269.5,480.5C 267.889,479.68 267.222,478.346 267.5,476.5C 269.477,465.884 270.144,454.884 269.5,443.5 Z"/></g>
<g><path style="opacity:1" fill="#f87e2e" d="M 268.5,441.5 C 268.833,442.167 269.167,442.833 269.5,443.5C 270.144,454.884 269.477,465.884 267.5,476.5C 265.885,471.987 263.885,467.654 261.5,463.5C 258.128,469.112 255.628,475.112 254,481.5C 252.471,482.729 251.304,484.229 250.5,486C 249.552,486.483 248.552,486.649 247.5,486.5C 247.183,482.298 247.517,478.298 248.5,474.5C 249.117,474.389 249.617,474.056 250,473.5C 251.156,468.54 251.989,463.54 252.5,458.5C 251.209,458.263 250.209,458.596 249.5,459.5C 246.048,462.2 242.714,464.866 239.5,467.5C 238.391,467.557 237.391,467.89 236.5,468.5C 235.624,468.631 234.957,468.298 234.5,467.5C 235.9,464.965 236.9,462.298 237.5,459.5C 240.448,453.552 244.781,448.885 250.5,445.5C 252.679,444.941 254.846,444.274 257,443.5C 258.584,443.988 259.751,444.988 260.5,446.5C 260.833,446.167 261.167,445.833 261.5,445.5C 258.538,442.612 259.205,441.279 263.5,441.5C 263.247,439.173 263.914,437.173 265.5,435.5C 266.518,437.594 267.518,439.594 268.5,441.5 Z"/></g>
<g><path style="opacity:1" fill="#283437" d="M 119.5,442.5 C 119.877,451.727 119.211,460.727 117.5,469.5C 117.783,460.321 118.449,451.321 119.5,442.5 Z"/></g>
<g><path style="opacity:1" fill="#cb723a" d="M 249.5,459.5 C 250.209,458.596 251.209,458.263 252.5,458.5C 251.989,463.54 251.156,468.54 250,473.5C 249.617,474.056 249.117,474.389 248.5,474.5C 249.035,470.489 249.702,466.489 250.5,462.5C 250.48,461.274 250.147,460.274 249.5,459.5 Z"/></g>
<g><path style="opacity:1" fill="#e7e7e7" d="M 313.5,442.5 C 314.165,445.482 314.498,448.648 314.5,452C 313.983,461.832 313.483,471.666 313,481.5C 309.985,475.803 307.818,469.803 306.5,463.5C 308.242,456.273 310.576,449.273 313.5,442.5 Z"/></g>
<g><path style="opacity:1" fill="#c27646" d="M 237.5,459.5 C 236.9,462.298 235.9,464.965 234.5,467.5C 234.957,468.298 235.624,468.631 236.5,468.5C 234.559,469.674 233.059,471.341 232,473.5C 231.893,468.052 233.726,463.385 237.5,459.5 Z"/></g>
<g><path style="opacity:1" fill="#aaaaaa" d="M 423.5,454.5 C 424.165,457.649 424.498,460.982 424.5,464.5C 424.632,470.077 423.965,475.41 422.5,480.5C 423.203,471.851 423.536,463.185 423.5,454.5 Z"/></g>
<g><path style="opacity:1" fill="#f67e30" d="M 312.5,486.5 C 312.662,488.527 312.495,490.527 312,492.5C 308.974,489.974 305.807,487.64 302.5,485.5C 301.199,489.103 299.533,492.436 297.5,495.5C 296.698,496.952 296.198,498.618 296,500.5C 295.667,495.167 295.333,489.833 295,484.5C 294.768,483.263 294.268,482.263 293.5,481.5C 290.675,481.081 288.509,482.081 287,484.5C 284.22,489.062 281.72,493.728 279.5,498.5C 278.85,498.804 278.183,499.137 277.5,499.5C 277.167,497.833 276.833,496.167 276.5,494.5C 276.876,490.76 277.543,487.094 278.5,483.5C 278.709,482.078 279.209,480.745 280,479.5C 290.513,469.469 297.68,457.469 301.5,443.5C 303.155,440.944 304.821,438.277 306.5,435.5C 308.705,436.871 310.372,438.704 311.5,441C 305.329,449.515 302.829,459.015 304,469.5C 306.86,475.22 309.693,480.886 312.5,486.5 Z"/></g>
<g><path style="opacity:1" fill="#170e0d" d="M 283.5,413.5 C 280.093,418.641 276.926,423.974 274,429.5C 273.801,440.075 274.634,450.575 276.5,461C 275.869,467.862 275.369,474.696 275,481.5C 279.95,474.216 285.283,467.216 291,460.5C 293.992,454.121 296.826,447.788 299.5,441.5C 300.833,441.5 301.5,442.167 301.5,443.5C 297.68,457.469 290.513,469.469 280,479.5C 279.209,480.745 278.709,482.078 278.5,483.5C 276.039,486.638 275.039,490.305 275.5,494.5C 275.667,496.833 275.833,499.167 276,501.5C 278.005,502.032 279.171,501.032 279.5,498.5C 281.72,493.728 284.22,489.062 287,484.5C 288.509,482.081 290.675,481.081 293.5,481.5C 293.5,486.5 293.5,491.5 293.5,496.5C 293.336,499.187 293.503,501.854 294,504.5C 294.71,505.973 295.876,506.64 297.5,506.5C 297.5,505.5 297.5,504.5 297.5,503.5C 297.5,500.833 297.5,498.167 297.5,495.5C 299.533,492.436 301.199,489.103 302.5,485.5C 305.807,487.64 308.974,489.974 312,492.5C 312.495,490.527 312.662,488.527 312.5,486.5C 313.152,487.449 313.486,488.615 313.5,490C 313.518,492.442 312.851,494.608 311.5,496.5C 309.372,494.597 307.039,492.931 304.5,491.5C 303.914,491.709 303.414,492.043 303,492.5C 300.755,498.634 299.589,504.968 299.5,511.5C 297.278,511.822 295.444,511.155 294,509.5C 292.096,506.077 291.263,502.41 291.5,498.5C 291.823,494.774 291.489,491.107 290.5,487.5C 289.893,487.624 289.56,487.957 289.5,488.5C 286.909,489.254 285.076,490.921 284,493.5C 281.922,498.575 279.756,503.575 277.5,508.5C 276.522,508.023 275.689,507.357 275,506.5C 272.96,501.053 271.96,495.386 272,489.5C 270.604,491.527 268.938,491.86 267,490.5C 267.128,484.222 265.628,478.389 262.5,473C 261.668,472.312 261.002,472.479 260.5,473.5C 258.235,478.273 255.735,482.939 253,487.5C 251.649,489.019 250.149,490.352 248.5,491.5C 244.876,483.472 244.543,475.305 247.5,467C 246.423,466.53 245.423,466.697 244.5,467.5C 243.001,466.506 241.334,466.506 239.5,467.5C 242.714,464.866 246.048,462.2 249.5,459.5C 250.147,460.274 250.48,461.274 250.5,462.5C 249.702,466.489 249.035,470.489 248.5,474.5C 247.517,478.298 247.183,482.298 247.5,486.5C 248.552,486.649 249.552,486.483 250.5,486C 251.304,484.229 252.471,482.729 254,481.5C 255.628,475.112 258.128,469.112 261.5,463.5C 263.885,467.654 265.885,471.987 267.5,476.5C 267.222,478.346 267.889,479.68 269.5,480.5C 271.484,469.591 271.984,458.591 271,447.5C 270.79,445.942 270.29,444.609 269.5,443.5C 269.167,442.833 268.833,442.167 268.5,441.5C 269.079,430.607 272.912,420.941 280,412.5C 280.49,411.207 280.657,409.873 280.5,408.5C 278.031,407.933 275.698,407.933 273.5,408.5C 273.62,407.414 274.287,406.747 275.5,406.5C 277.819,407.064 280.153,407.564 282.5,408C 283.406,409.699 283.739,411.533 283.5,413.5 Z"/></g>
<g><path style="opacity:1" fill="#d87e47" d="M 293.5,481.5 C 294.268,482.263 294.768,483.263 295,484.5C 295.333,489.833 295.667,495.167 296,500.5C 296.198,498.618 296.698,496.952 297.5,495.5C 297.5,498.167 297.5,500.833 297.5,503.5C 296.778,503.918 296.278,504.584 296,505.5C 295.159,502.372 294.325,499.372 293.5,496.5C 293.5,491.5 293.5,486.5 293.5,481.5 Z"/></g>
<g><path style="opacity:1" fill="#7f8285" d="M 289.5,488.5 C 289.56,487.957 289.893,487.624 290.5,487.5C 291.489,491.107 291.823,494.774 291.5,498.5C 290.833,495.167 290.167,491.833 289.5,488.5 Z"/></g>
<g><path style="opacity:1" fill="#a76131" d="M 278.5,483.5 C 277.543,487.094 276.876,490.76 276.5,494.5C 276.833,496.167 277.167,497.833 277.5,499.5C 278.183,499.137 278.85,498.804 279.5,498.5C 279.171,501.032 278.005,502.032 276,501.5C 275.833,499.167 275.667,496.833 275.5,494.5C 275.039,490.305 276.039,486.638 278.5,483.5 Z"/></g>
<g><path style="opacity:1" fill="#421c11" d="M 293.5,496.5 C 294.325,499.372 295.159,502.372 296,505.5C 296.278,504.584 296.778,503.918 297.5,503.5C 297.5,504.5 297.5,505.5 297.5,506.5C 295.876,506.64 294.71,505.973 294,504.5C 293.503,501.854 293.336,499.187 293.5,496.5 Z"/></g>
<g><path style="opacity:1" fill="#687b82" d="M 318.5,484.5 C 318.607,495.034 317.94,505.367 316.5,515.5C 316.47,504.971 317.137,494.638 318.5,484.5 Z"/></g>
</svg>
